<svg width="57" height="76" viewBox="0 0 57 76" fill="none" xmlns="http://www.w3.org/2000/svg">
<path d="M28.25 0C43.844 0 56.5 12.6529 56.5 28.2432C56.5 56.4864 28.25 75.3154 28.25 75.3154C28.25 75.3154 0 56.4864 0 28.2432C4.28409e-05 12.6529 12.656 5.15878e-07 28.25 0ZM28.25 9.68359C18.1458 9.68359 9.95508 17.8728 9.95508 27.9746C9.95527 38.0762 18.1459 46.2646 28.25 46.2646C38.3541 46.2646 46.5447 38.0762 46.5449 27.9746C46.5449 17.8728 38.3542 9.6836 28.25 9.68359Z" fill="white"/>
<circle cx="28.5" cy="28.5" r="19.5" fill="white"/>
<path d="M28.25 2C42.74 2 54.5 13.76 54.5 28.25C54.5 54.5 28.25 72 28.25 72C28.25 72 2 54.5 2 28.25C2 13.76 13.76 2 28.25 2ZM28.25 11C18.8612 11 11.25 18.6112 11.25 28C11.25 37.3888 18.8612 45 28.25 45C37.6388 45 45.25 37.3888 45.25 28C45.25 18.6112 37.6388 11 28.25 11Z" fill="#22C55E"/>
<mask id="mask0_1_918" style="mask-type:luminance" maskUnits="userSpaceOnUse" x="14" y="10" width="30" height="32">
<path d="M30.8632 10L43.5931 19.289L27.0458 41.966L14.3158 32.677L30.8632 10Z" fill="white"/>
</mask>
<g mask="url(#mask0_1_918)">
<path fill-rule="evenodd" clip-rule="evenodd" d="M37.5603 15.072C37.4191 14.7231 37.0939 14.4858 36.7199 14.4587C31.5536 14.0748 26.1036 16.5273 22.5955 21.3349C19.0869 26.1432 18.4138 32.0816 20.3557 36.8847C20.4957 37.2324 20.8209 37.4697 21.1962 37.498C26.3623 37.8818 31.8123 35.4285 35.3208 30.6204C38.8286 25.8132 39.5017 19.8747 37.5603 15.072ZM35.9532 16.3917C31.6055 16.2884 27.1263 18.4654 24.1859 22.495C21.2448 26.5256 20.5382 31.4553 21.963 35.5644C26.3098 35.667 30.7887 33.4898 33.7298 29.4592C36.6703 25.4295 37.377 20.5 35.9532 16.3917Z" fill="#22C55E"/>
</g>
<path fill-rule="evenodd" clip-rule="evenodd" d="M32.9503 18.8361L20.4729 35.9357C20.1525 36.3748 20.2488 36.9912 20.6879 37.3116C21.1267 37.6318 21.7431 37.5354 22.0635 37.0964L34.541 19.9968C34.8614 19.5578 34.765 18.9413 34.3262 18.6211C33.8871 18.3008 33.2707 18.3971 32.9503 18.8361Z" fill="#22C55E"/>
<path fill-rule="evenodd" clip-rule="evenodd" d="M24.0031 26.5762L24.648 30.703C24.7318 31.2396 25.2358 31.6082 25.773 31.5243C26.3099 31.4403 26.6773 30.9355 26.5935 30.399L25.9486 26.2722C25.8647 25.7356 25.3607 25.3672 24.8237 25.4511C24.2869 25.535 23.9193 26.0397 24.0031 26.5762Z" fill="#22C55E"/>
<path fill-rule="evenodd" clip-rule="evenodd" d="M29.5962 28.9335L25.4694 29.5784C24.9329 29.6623 24.5642 30.1662 24.6481 30.7031C24.7321 31.2404 25.2369 31.6078 25.7733 31.5238L29.9003 30.8791C30.4368 30.7952 30.8052 30.2911 30.7214 29.7542C30.6375 29.2173 30.1328 28.8497 29.5962 28.9335Z" fill="#22C55E"/>
<path fill-rule="evenodd" clip-rule="evenodd" d="M28.0659 21.0084L28.7107 25.1354C28.7945 25.6719 29.2986 26.0404 29.8357 25.9566C30.3726 25.8727 30.74 25.3679 30.6562 24.8313L30.0113 20.7045C29.9274 20.168 29.4235 19.7993 28.8866 19.8832C28.3495 19.9673 27.9819 20.472 28.0659 21.0084Z" fill="#22C55E"/>
<path fill-rule="evenodd" clip-rule="evenodd" d="M33.6587 23.3661L29.5318 24.011C28.9953 24.0949 28.6267 24.5988 28.7106 25.1357C28.7946 25.6728 29.2993 26.0404 29.8357 25.9564L33.9628 25.3115C34.4992 25.2278 34.8677 24.7237 34.7839 24.1866C34.7 23.6497 34.1952 23.2823 33.6587 23.3661Z" fill="#22C55E"/>
<mask id="mask1_1_918" style="mask-type:luminance" maskUnits="userSpaceOnUse" x="17" y="35" width="6" height="6">
<path d="M21.0522 35.1152L22.6688 36.2948L19.4654 40.6847L17.8489 39.5052L21.0522 35.1152Z" fill="white"/>
</mask>
<g mask="url(#mask1_1_918)">
<path fill-rule="evenodd" clip-rule="evenodd" d="M20.4732 35.9352L18.4419 38.7189C18.1216 39.1579 18.2179 39.7743 18.6569 40.0947C19.0958 40.4149 19.7122 40.3186 20.0326 39.8795L22.0638 37.0959C22.3842 36.6568 22.2879 36.0404 21.849 35.7202C21.41 35.3998 20.7935 35.4961 20.4732 35.9352Z" fill="#22C55E"/>
</g>
</svg>
