<svg width="57" height="76" viewBox="0 0 57 76" fill="none" xmlns="http://www.w3.org/2000/svg">
<path d="M28.25 0C43.844 0 56.5 12.6529 56.5 28.2432C56.5 56.4864 28.25 75.3154 28.25 75.3154C28.25 75.3154 0 56.4864 0 28.2432C4.28409e-05 12.6529 12.656 5.15878e-07 28.25 0ZM28.25 9.68359C18.1458 9.68359 9.95508 17.8728 9.95508 27.9746C9.95527 38.0762 18.1459 46.2646 28.25 46.2646C38.3541 46.2646 46.5447 38.0762 46.5449 27.9746C46.5449 17.8728 38.3542 9.6836 28.25 9.68359Z" fill="white"/>
<circle cx="28.5" cy="28.5" r="19.5" fill="white"/>
<path d="M28.25 2C42.74 2 54.5 13.76 54.5 28.25C54.5 54.5 28.25 72 28.25 72C28.25 72 2 54.5 2 28.25C2 13.76 13.76 2 28.25 2ZM28.25 11C18.8612 11 11.25 18.6112 11.25 28C11.25 37.3888 18.8612 45 28.25 45C37.6388 45 45.25 37.3888 45.25 28C45.25 18.6112 37.6388 11 28.25 11Z" fill="#888888"/>
<path d="M39.2005 30.6006H33.6003V21.0005H34.8004C35.0862 21.0005 35.3502 20.848 35.4931 20.6005C35.6361 20.353 35.636 20.0479 35.4931 19.8004C35.3502 19.5529 35.0862 19.4005 34.8004 19.4005H33.4896C33.3965 19.2377 33.249 19.1133 33.0729 19.0489C32.8971 18.9846 32.7039 18.9846 32.5281 19.0489C32.352 19.1132 32.2045 19.2377 32.1114 19.4005H31.0894C30.9965 19.2377 30.8491 19.1133 30.673 19.0489C30.4969 18.9846 30.304 18.9846 30.1279 19.0489C29.9521 19.1132 29.8044 19.2377 29.7115 19.4005H28.6895C28.5964 19.2377 28.4489 19.1133 28.2731 19.0489C28.097 18.9846 27.9039 18.9846 27.728 19.0489C27.5519 19.1132 27.4045 19.2377 27.3114 19.4005H16.8001C16.5143 19.4005 16.2501 19.5529 16.1072 19.8004C15.9643 20.0479 15.9643 20.353 16.1072 20.6005C16.2501 20.848 16.5143 21.0005 16.8001 21.0005H27.2001V30.6006H23.2001C22.9879 30.6006 22.7845 30.6848 22.6344 30.8348C22.4843 30.9849 22.4 31.1883 22.4 31.4005V34.2006C22.4018 35.228 22.7624 36.2224 23.4198 37.012C24.0772 37.8016 24.9898 38.3365 26 38.5241V40.2005C26 40.4127 26.0843 40.6162 26.2344 40.7662C26.3844 40.9163 26.5879 41.0007 26.8001 41.0007H35.5999C35.8121 41.0007 36.0156 40.9163 36.1656 40.7662C36.3157 40.6162 36.4 40.4127 36.4 40.2005V38.5241C37.4102 38.3365 38.3228 37.8016 38.9802 37.012C39.6376 36.2224 39.9982 35.228 40 34.2006V31.4005C40 31.1884 39.9156 30.9849 39.7656 30.8348C39.6155 30.6848 39.4121 30.6006 39.1999 30.6006H39.2005ZM31.2004 21.0005H32.0003V30.6006H31.2004V21.0005ZM28.8005 21.0005H29.6004V30.6006H28.8003L28.8005 21.0005ZM34.8005 39.4005H27.6003V38.6004H34.8005V39.4005ZM38.4006 34.2002C38.3998 34.9426 38.1044 35.6542 37.5794 36.1792C37.0546 36.7042 36.3428 36.9993 35.6005 37.0001H26.8007C26.0583 36.9993 25.3465 36.7041 24.8217 36.1792C24.2967 35.6542 24.0016 34.9426 24.0006 34.2002V32.2003H38.4006V34.2002Z" fill="#888888"/>
<path d="M16.8006 18.6H34.8007C35.0865 18.6 35.3505 18.4476 35.4934 18.2001C35.6364 17.9525 35.6363 17.6477 35.4934 17.4002C35.3505 17.1526 35.0865 17 34.8007 17H16.8006C16.5148 17 16.2506 17.1526 16.1077 17.4002C15.9648 17.6477 15.9648 17.9525 16.1077 18.2001C16.2506 18.4476 16.5148 18.6 16.8006 18.6Z" fill="#888888"/>
</svg>
