<svg width="57" height="76" viewBox="0 0 57 76" fill="none" xmlns="http://www.w3.org/2000/svg">
<path d="M28.25 0C43.844 0 56.5 12.6529 56.5 28.2432C56.5 56.4864 28.25 75.3154 28.25 75.3154C28.25 75.3154 0 56.4864 0 28.2432C4.28409e-05 12.6529 12.656 5.15878e-07 28.25 0ZM28.25 9.68359C18.1458 9.68359 9.95508 17.8728 9.95508 27.9746C9.95527 38.0762 18.1459 46.2646 28.25 46.2646C38.3541 46.2646 46.5447 38.0762 46.5449 27.9746C46.5449 17.8728 38.3542 9.6836 28.25 9.68359Z" fill="white"/>
<circle cx="28.5" cy="28.5" r="19.5" fill="white"/>
<path d="M28.25 2C42.74 2 54.5 13.76 54.5 28.25C54.5 54.5 28.25 72 28.25 72C28.25 72 2 54.5 2 28.25C2 13.76 13.76 2 28.25 2ZM28.25 11C18.8612 11 11.25 18.6112 11.25 28C11.25 37.3888 18.8612 45 28.25 45C37.6388 45 45.25 37.3888 45.25 28C45.25 18.6112 37.6388 11 28.25 11Z" fill="#888888"/>
<path fill-rule="evenodd" clip-rule="evenodd" d="M21.292 16.7982C25.3322 14.4006 31.9911 14.4006 36.0312 16.7982C38.126 17.997 39.3225 19.7202 39.1729 21.5932V34.4066C39.1727 36.2798 37.9757 37.9278 35.8809 39.2016C33.861 40.4004 31.2422 41.0004 28.5488 41.0004C25.9304 41.0004 23.2368 40.4004 21.2168 39.2016C19.272 38.0029 18.1497 36.4296 18 34.7064V21.5932C18.0001 19.7199 19.1972 18.072 21.292 16.7982ZM28.6982 16.4232C26.3042 16.4232 23.9099 17.0226 22.1143 18.0717C20.4686 19.046 19.5704 20.3192 19.5703 21.518C19.5703 22.8667 20.4685 24.0654 22.1143 25.0395C25.7061 27.2127 31.6915 27.2128 35.2822 25.1146C36.9281 24.1407 37.8261 22.8669 37.8262 21.5932C37.8262 20.2445 36.9279 19.0457 35.2822 18.0717C33.4869 16.9479 31.0923 16.4232 28.6982 16.4232ZM25.1826 19.4955C27.1278 18.3718 30.2701 18.3717 32.1406 19.4955C34.0856 20.6193 34.0856 22.4928 32.1406 23.6166C30.1955 24.7404 27.0532 24.7403 25.1826 23.6166C23.3121 22.4928 23.3121 20.6194 25.1826 19.4955Z" fill="#888888"/>
</svg>
