<svg width="57" height="76" viewBox="0 0 57 76" fill="none" xmlns="http://www.w3.org/2000/svg">
<path d="M28.25 0C43.844 0 56.5 12.6529 56.5 28.2432C56.5 56.4864 28.25 75.3154 28.25 75.3154C28.25 75.3154 0 56.4864 0 28.2432C4.28409e-05 12.6529 12.656 5.15878e-07 28.25 0ZM28.25 9.68359C18.1458 9.68359 9.95508 17.8728 9.95508 27.9746C9.95527 38.0762 18.1459 46.2646 28.25 46.2646C38.3541 46.2646 46.5447 38.0762 46.5449 27.9746C46.5449 17.8728 38.3542 9.6836 28.25 9.68359Z" fill="white"/>
<circle cx="28.5" cy="28.5" r="19.5" fill="white"/>
<path d="M28.25 2C42.74 2 54.5 13.76 54.5 28.25C54.5 54.5 28.25 72 28.25 72C28.25 72 2 54.5 2 28.25C2 13.76 13.76 2 28.25 2ZM28.25 11C18.8612 11 11.25 18.6112 11.25 28C11.25 37.3888 18.8612 45 28.25 45C37.6388 45 45.25 37.3888 45.25 28C45.25 18.6112 37.6388 11 28.25 11Z" fill="#888888"/>
<path d="M42.25 24.9287C42.25 23.4516 41.0727 22.2502 39.6251 22.2502H39.5118C39.1649 20.8805 38.0409 19.8251 36.6487 19.6114C35.9724 17.9822 34.4 16.8927 32.6251 16.8927C32.1307 16.8927 31.6395 16.9789 31.1753 17.1451C30.3773 16.4107 29.3425 16 28.2501 16C27.1577 16 26.123 16.4107 25.3249 17.1451C24.8608 16.9789 24.3693 16.8927 23.8749 16.8927C22.0999 16.8927 20.5276 17.982 19.8513 19.6112C18.4593 19.8252 17.3356 20.8805 16.9882 22.25H16.8749C15.4273 22.25 14.25 23.4514 14.25 24.9285C14.25 29.7053 16.9222 34.295 21.2499 37.0325V38.3215C21.2499 39.7987 22.4272 41 23.8748 41H32.6248C34.0724 41 35.2497 39.7986 35.2497 38.3215V37.0326C39.5775 34.2945 42.2495 29.7055 42.2495 24.9287L42.25 24.9287ZM20.3817 21.3581H20.3834L20.4587 21.3625C20.8819 21.3818 21.2344 21.0974 21.336 20.6915C21.6332 19.5064 22.6777 18.6785 23.875 18.6785C24.315 18.6785 24.7338 18.7861 25.1187 18.9982C25.4885 19.2017 25.9483 19.108 26.2129 18.7762C26.7153 18.1468 27.4574 17.7857 28.2502 17.7857C29.043 17.7857 29.7848 18.1468 30.2868 18.7764C30.5514 19.108 31.0112 19.202 31.381 18.9984C31.7663 18.7862 32.1851 18.6785 32.6252 18.6785C33.8227 18.6785 34.8669 19.5061 35.1643 20.6915C35.2664 21.0974 35.6242 21.3823 36.0416 21.3625L36.1252 21.3572C36.77 21.3572 37.3283 21.7192 37.6318 22.25H18.8686C19.1725 21.7196 19.7317 21.3581 20.3815 21.3581L20.3817 21.3581ZM32.6252 39.2143H23.8752C23.3926 39.2143 23.0003 38.8138 23.0003 38.3216V37.4288H33.5004V38.3216C33.5002 38.814 33.1079 39.2143 32.6253 39.2143H32.6252ZM34.1377 35.6428H22.3627C18.4322 33.2443 16.0003 29.1595 16.0003 24.9283C16.0003 24.4358 16.3928 24.0355 16.8752 24.0355H39.6249C40.1075 24.0355 40.4998 24.436 40.4998 24.9283C40.5 29.1591 38.0681 33.2439 34.1374 35.6428H34.1377Z" fill="#888888"/>
</svg>
