<svg width="57" height="76" viewBox="0 0 57 76" fill="none" xmlns="http://www.w3.org/2000/svg">
<path d="M28.25 0C43.844 0 56.5 12.6529 56.5 28.2432C56.5 56.4864 28.25 75.3154 28.25 75.3154C28.25 75.3154 0 56.4864 0 28.2432C4.28409e-05 12.6529 12.656 5.15878e-07 28.25 0ZM28.25 9.68359C18.1458 9.68359 9.95508 17.8728 9.95508 27.9746C9.95527 38.0762 18.1459 46.2646 28.25 46.2646C38.3541 46.2646 46.5447 38.0762 46.5449 27.9746C46.5449 17.8728 38.3542 9.6836 28.25 9.68359Z" fill="white"/>
<circle cx="28.5" cy="28.5" r="19.5" fill="white"/>
<path d="M28.25 2C42.74 2 54.5 13.76 54.5 28.25C54.5 54.5 28.25 72 28.25 72C28.25 72 2 54.5 2 28.25C2 13.76 13.76 2 28.25 2ZM28.25 11C18.8612 11 11.25 18.6112 11.25 28C11.25 37.3888 18.8612 45 28.25 45C37.6388 45 45.25 37.3888 45.25 28C45.25 18.6112 37.6388 11 28.25 11Z" fill="#22C55E"/>
<path d="M42.4129 22.7083C42.2399 22.6203 42.0463 22.5793 41.8521 22.5888C41.6576 22.5983 41.4692 22.6586 41.3061 22.7629L38.4613 24.6349L32.074 22.1061H32.0738C29.1723 20.9479 25.9826 20.692 22.9306 21.3727L21.4253 21.7011H21.425C18.5289 22.3362 15.8779 23.7801 13.7872 25.8613L12.3261 27.2736C12.1317 27.4651 12.0161 27.7212 12.0015 27.9923C11.9872 28.2634 12.0754 28.5301 12.2487 28.7406L13.4994 30.2405C15.7233 32.9834 18.8301 34.89 22.3022 35.6429C25.7746 36.3961 29.4029 35.9499 32.5837 34.3787L38.4949 31.4558L41.2845 33.2949H41.2843C41.4477 33.3992 41.6361 33.4596 41.8303 33.4691C42.0247 33.4788 42.2181 33.4375 42.3914 33.3495C42.5658 33.2629 42.7138 33.1322 42.8209 32.9709C42.9278 32.8093 42.9896 32.6227 43 32.4301V23.6719C42.9995 23.4739 42.9448 23.2797 42.8413 23.1099C42.738 22.9402 42.5902 22.8016 42.4134 22.7085L42.4129 22.7083ZM15.2261 28.9158L14.5953 28.1276L15.3256 27.383C16.6305 26.098 18.191 25.0948 19.9087 24.438C20.6612 25.6264 20.9823 27.0326 20.8194 28.4252C20.6563 29.8181 20.0188 31.1146 19.0119 32.1014C17.5621 31.2798 16.2783 30.1997 15.2261 28.9158ZM40.7859 30.3829L39.1809 29.2883V29.288C39.0186 29.1818 38.8307 29.1196 38.6363 29.1082C38.4421 29.0968 38.2479 29.1361 38.0741 29.2223L31.5871 32.4302C28.8497 33.7889 25.7229 34.1754 22.7316 33.5248C22.182 33.4026 21.6418 33.2415 21.1156 33.0432C22.38 31.5476 23.0733 29.6609 23.0749 27.7114C23.0708 26.3444 22.7288 24.9987 22.0785 23.7921L23.3957 23.5075C23.5618 23.5075 23.7387 23.4417 23.9158 23.4089H23.9161C24.1861 23.749 24.4198 24.1159 24.6135 24.5038C25.3784 25.9913 25.4981 27.7223 24.9455 29.2988C24.8507 29.5748 24.8711 29.8766 25.0021 30.1374C25.1331 30.3984 25.3635 30.597 25.6428 30.6893C25.7557 30.7331 25.876 30.7553 25.9971 30.7551C26.2292 30.7556 26.4555 30.6842 26.6445 30.5505C26.8332 30.4169 26.9746 30.2281 27.0488 30.0105C27.7898 27.8747 27.6261 25.5333 26.595 23.5184L26.3957 23.19C27.2707 23.2014 28.1424 23.3003 28.9971 23.4858C29.2465 23.8003 29.4651 24.1374 29.6502 24.493C30.4099 25.9815 30.5297 27.7106 29.9823 29.288C29.887 29.5623 29.9059 29.863 30.0345 30.1235C30.1633 30.3843 30.3912 30.584 30.6686 30.6785C30.7823 30.7192 30.9018 30.7415 31.0229 30.7442C31.2547 30.7448 31.4813 30.6731 31.67 30.5397C31.8587 30.406 32.0001 30.217 32.0743 29.9997C32.717 28.2077 32.717 26.2518 32.0743 24.4601L38.1847 26.8795H38.1849C38.5219 27.0099 38.9023 26.9691 39.2033 26.77L40.8083 25.6754L40.7859 30.3829ZM18.6467 28.051C18.2512 28.051 17.8857 27.8421 17.6879 27.5034C17.4901 27.1647 17.4902 26.7475 17.6879 26.4087C17.8857 26.07 18.2512 25.8614 18.6467 25.8614C19.0422 25.8614 19.4075 26.07 19.6053 26.4087C19.803 26.7475 19.803 27.1647 19.6053 27.5034C19.4075 27.8421 19.0422 28.051 18.6467 28.051Z" fill="#22C55E"/>
</svg>
