<svg width="57" height="76" viewBox="0 0 57 76" fill="none" xmlns="http://www.w3.org/2000/svg">
<path d="M28.25 0C43.844 0 56.5 12.6529 56.5 28.2432C56.5 56.4864 28.25 75.3154 28.25 75.3154C28.25 75.3154 0 56.4864 0 28.2432C4.28409e-05 12.6529 12.656 5.15878e-07 28.25 0ZM28.25 9.68359C18.1458 9.68359 9.95508 17.8728 9.95508 27.9746C9.95527 38.0762 18.1459 46.2646 28.25 46.2646C38.3541 46.2646 46.5447 38.0762 46.5449 27.9746C46.5449 17.8728 38.3542 9.6836 28.25 9.68359Z" fill="white"/>
<circle cx="28.5" cy="28.5" r="19.5" fill="white"/>
<path d="M28.25 2C42.74 2 54.5 13.76 54.5 28.25C54.5 54.5 28.25 72 28.25 72C28.25 72 2 54.5 2 28.25C2 13.76 13.76 2 28.25 2ZM28.25 11C18.8612 11 11.25 18.6112 11.25 28C11.25 37.3888 18.8612 45 28.25 45C37.6388 45 45.25 37.3888 45.25 28C45.25 18.6112 37.6388 11 28.25 11Z" fill="#8B5CF6"/>
<mask id="mask0_1_1068" style="mask-type:luminance" maskUnits="userSpaceOnUse" x="14" y="16" width="30" height="25">
<path d="M14 16H44V40.3985H14V16Z" fill="white"/>
</mask>
<g mask="url(#mask0_1_1068)">
<path d="M14.1879 36.6176C14.5694 37.6947 15.8279 38.4751 17.3259 38.5986C17.7392 39.7376 19.0034 40.398 20.1955 40.398C20.9417 40.398 21.5797 40.1454 21.9919 39.6858C22.0636 39.6061 22.1375 39.5103 22.2049 39.3969C23.0151 39.8205 24.0148 40.0654 25.0193 40.0654C26.2949 40.0654 27.3792 39.6632 28.0736 38.9313C28.4236 38.5617 28.6678 38.1147 28.801 37.6079C29.7359 37.9451 30.9195 38.0141 31.7164 37.7256C33.0856 37.2311 33.3643 36.3454 33.5867 35.4692C35.1908 35.6764 36.3097 34.2684 36.7059 31.5738C37.195 31.4931 37.6336 31.1851 37.9586 30.6852C38.3455 30.0901 38.5284 29.2934 38.4708 28.5989C39.2692 28.1769 39.5719 27.4287 39.4989 26.7702C39.4989 26.766 39.4975 26.7623 39.4968 26.7581C41.3041 26.3016 44.0333 24.9987 43.9755 23.0714C43.9667 22.7619 43.7609 22.493 43.4645 22.4026C42.6887 22.1651 42.0787 21.8072 41.5993 21.3072C41.5574 21.2636 41.5052 21.2391 41.4567 21.2081C41.8279 20.6186 42.116 20.0321 42.1302 19.6285C42.1581 18.8062 40.5915 16.2112 39.6294 16.0456C38.5136 15.8524 37.7377 16.5559 37.1663 17.553C37.1535 17.546 37.1423 17.5365 37.1286 17.5306C36.941 17.4444 36.68 17.2634 36.4029 17.0718C35.4778 16.4322 33.9298 15.3598 32.7661 16.727C32.096 17.515 32.3038 18.8067 32.5051 20.0559C32.5911 20.5837 32.6529 21.6587 32.6992 21.7696C32.6519 21.7647 32.6098 21.7547 32.5594 21.7547C31.9904 21.7547 31.5083 22.0821 31.1231 22.7292C30.5366 22.9224 29.8654 23.4262 29.7746 24.7062C28.8558 24.808 28.0682 25.1702 27.5639 25.7364C27.2894 26.0445 27.1016 26.4062 27.0046 26.8069C26.8021 26.7729 26.5952 26.7557 26.3895 26.7557C25.5729 26.7557 24.869 27.0246 24.406 27.5132C24.3876 27.533 24.3701 27.5521 24.3524 27.5724C23.9663 27.3112 23.5697 27.2667 23.3431 27.2667C22.6103 27.2667 21.8467 27.7029 21.3121 28.3423C20.8484 27.7572 20.3409 27.4617 19.7956 27.4617C18.8341 27.4617 18.0586 28.3838 17.6755 29.9245C17.4325 29.8637 17.1871 29.8324 16.9413 29.8324C15.6245 29.8324 14.4402 30.7601 14.1247 32.0364C13.9131 32.8895 14.1382 33.7053 14.7201 34.3135C13.9115 35.2812 14.0207 36.1427 14.1878 36.6176L14.1879 36.6176ZM39.3053 17.4621C39.3085 17.4621 39.3125 17.4621 39.3164 17.4624C39.7121 17.7625 40.5778 19.1592 40.6824 19.5931C40.5654 20.0769 39.3751 21.7538 38.8639 22.2144C38.5666 22.4812 38.5428 22.9379 38.8094 23.2339C38.952 23.3928 39.1491 23.4734 39.3465 23.4734C39.5189 23.4734 39.6914 23.4124 39.8293 23.2882C39.985 23.1488 40.2909 22.8047 40.6293 22.3743C41.1224 22.8697 41.7007 23.2593 42.3884 23.548C41.8508 24.3764 39.932 25.275 38.6919 25.4593C38.5787 25.3801 38.457 25.3071 38.3209 25.2489C38.4307 24.9497 38.447 24.649 38.3983 24.3808C38.2464 23.5571 37.4841 22.9366 36.6241 22.9366C36.5749 22.9366 36.5178 22.9403 36.4577 22.9452C36.6175 22.8832 36.759 22.7704 36.8424 22.6057C37.0179 22.2585 37.1714 21.7376 37.3665 21.0782C37.7169 19.8931 38.4347 17.4621 39.3053 17.4621ZM33.867 17.6628C34.1107 17.3747 34.4961 17.5099 35.5806 18.2595C35.9113 18.4881 36.5547 18.8521 36.5682 18.8577C36.3349 19.4776 35.7913 21.304 35.7081 21.554C35.4891 21.3156 35.0473 20.9311 34.4677 20.9311C34.3498 20.9311 34.2182 20.9496 34.0823 20.9927C34.0583 20.6347 33.9987 20.2393 33.9313 19.8261C33.8262 19.1674 33.6289 17.9429 33.867 17.6627L33.867 17.6628ZM15.5275 32.3824C15.6596 31.8471 16.2002 31.2774 16.9417 31.2774C17.24 31.2774 17.5485 31.3695 17.858 31.5505C18.067 31.6733 18.324 31.6824 18.5407 31.5759C18.7577 31.4697 18.907 31.2616 18.9394 31.0211C19.1277 29.5948 19.6357 28.9216 19.7965 28.9067C19.8004 28.9067 20.1679 28.9789 20.705 30.1303C20.8374 30.4122 21.14 30.5821 21.4465 30.5409C21.7566 30.5038 22.0083 30.2713 22.0684 29.9653C22.2003 29.3014 22.8915 28.7107 23.3445 28.7107C23.571 28.7107 23.7441 28.9246 23.8579 29.3481C23.9546 29.7044 24.3074 29.9329 24.6697 29.8733C25.0346 29.8146 25.2972 29.4909 25.2765 29.1209C25.2623 28.8503 25.3208 28.6495 25.4568 28.5073C25.6405 28.3125 25.9814 28.2009 26.3908 28.2009C26.7273 28.2009 27.074 28.2792 27.3427 28.4153C27.5792 28.5351 27.864 28.5164 28.0821 28.3633C28.3 28.2114 28.4174 27.9518 28.3862 27.688C28.3382 27.2709 28.4221 26.947 28.6442 26.6981C28.989 26.3111 29.6991 26.0913 30.4739 26.127C30.6868 26.1398 30.8831 26.0559 31.0285 25.9054C31.1727 25.7549 31.2445 25.5493 31.2265 25.342C31.1231 24.1587 31.509 24.1004 31.717 24.0692C31.9531 24.0338 32.157 23.8832 32.2602 23.6672C32.4424 23.2874 32.566 23.2056 32.5634 23.2002C32.6051 23.2023 33.1485 23.4149 33.3834 23.4149C33.5891 23.4149 34.0941 23.3454 34.3497 22.7065C34.4129 22.5487 34.4676 22.4578 34.5049 22.408C34.5648 22.4492 34.7107 22.61 34.7247 22.6258C34.8009 22.8714 34.6836 24.2933 34.6825 24.4183C34.6771 24.737 34.882 25.0215 35.186 25.118C35.4899 25.2154 35.8215 25.0996 36.0014 24.836C36.2002 24.5438 36.4211 24.3828 36.6245 24.3828C36.8067 24.3828 36.9544 24.5173 36.9768 24.6433C37.0122 24.8316 36.7408 25.07 36.3031 25.2371C35.9385 25.3757 35.7502 25.7791 35.8772 26.1477C36.0044 26.5159 36.4024 26.7317 36.7748 26.6019C37.87 26.2214 37.901 27.2017 37.472 27.4361C37.2821 27.5398 37.0819 27.623 36.9848 27.8166C36.8874 28.0098 36.882 28.2363 36.9699 28.4346C37.1062 28.7427 37.0395 29.4499 36.7483 29.8987C36.7089 29.9586 36.574 30.151 36.4458 30.151C36.4157 30.151 36.3775 30.1422 36.3356 30.1263C36.1251 30.0427 35.8863 30.0646 35.6936 30.1832C35.5004 30.3018 35.3741 30.5045 35.3538 30.7299C35.1965 32.3801 34.679 34.0449 33.8746 34.0449C33.7299 34.0449 33.5605 34.0015 33.372 33.9172C33.1818 33.833 32.9646 33.833 32.7749 33.9202C32.5864 34.0071 32.4431 34.1709 32.3842 34.3706C32.3187 34.5899 32.2672 34.798 32.218 34.9937C32.0146 35.8067 31.9377 36.112 31.2253 36.3686C31.044 36.4345 30.8049 36.469 30.533 36.469C29.8302 36.469 29.0272 36.2322 28.666 35.9188C28.4474 35.7273 28.1352 35.6867 27.8756 35.8142C27.6144 35.9419 27.4552 36.2122 27.4706 36.5014C27.5025 37.1098 27.3529 37.5929 27.0244 37.9385C26.6063 38.38 25.8945 38.6231 25.0195 38.6231C23.9501 38.6231 22.8314 38.241 22.2355 37.6726C22.0163 37.4629 21.6903 37.4132 21.4171 37.547C21.1454 37.6817 20.986 37.9713 21.0191 38.2726C21.0511 38.5725 20.9497 38.6855 20.9171 38.7221C20.7859 38.868 20.516 38.9542 20.1951 38.9542C19.5898 38.9542 18.674 38.6042 18.6315 37.8504C18.6108 37.4671 18.292 37.169 17.9113 37.169C17.9013 37.169 17.8917 37.169 17.8819 37.1697C16.693 37.2119 15.7334 36.6547 15.5498 36.1363C15.3727 35.6346 15.9299 35.0886 16.2778 34.808C16.4663 34.6551 16.5665 34.4179 16.5429 34.1756C16.5194 33.9341 16.3759 33.7205 16.1601 33.6065C15.4759 33.2453 15.4386 32.7413 15.5275 32.3824L15.5275 32.3824Z" fill="#8B5CF6"/>
</g>
<path d="M22.3432 35.4394C22.5347 35.4394 22.7253 35.3642 22.867 35.2146C23.1415 34.9252 23.1296 34.4682 22.8402 34.193C22.7691 34.1259 22.7326 34.0765 22.7141 34.0471C22.8922 33.8234 23.7522 33.5016 24.3225 33.5478C24.7121 33.582 25.071 33.2931 25.109 32.8957C25.146 32.4987 24.8543 32.1468 24.4569 32.1093C23.6064 32.0291 21.8597 32.4213 21.3773 33.4834C21.2517 33.7591 21.0466 34.4824 21.8464 35.2409C21.986 35.3744 22.164 35.4394 22.3432 35.4394Z" fill="#8B5CF6"/>
<path d="M27.8529 33.8658C28.0538 33.8658 28.2544 33.7826 28.3968 33.6188C28.6594 33.3189 28.6293 32.8624 28.3287 32.6C28.2092 32.4956 28.1705 32.4303 28.1652 32.4432C28.2346 32.2533 28.9621 31.893 29.4766 31.9683C29.8685 32.0237 30.2395 31.756 30.2989 31.3612C30.3583 30.967 30.0866 30.599 29.6919 30.5398C28.7032 30.3909 27.282 30.9119 26.8553 31.8321C26.7162 32.1313 26.4897 32.9108 27.3775 33.6863C27.515 33.8065 27.6844 33.8657 27.8528 33.8657L27.8529 33.8658Z" fill="#8B5CF6"/>
<path d="M31.9469 29.6148C32.1229 29.6148 32.2997 29.551 32.4386 29.4219C32.7306 29.1511 32.7483 28.6937 32.4766 28.4008C32.4531 28.3756 32.4333 28.3528 32.4181 28.3329C32.5913 28.2481 32.9415 28.1566 33.2918 28.1943C33.6811 28.2234 34.0418 27.944 34.0826 27.5469C34.1216 27.1496 33.8324 26.7961 33.4355 26.756C32.705 26.6854 31.4644 26.8828 31.0445 27.7294C30.8925 28.0339 30.7399 28.654 31.418 29.384C31.5597 29.5376 31.7529 29.6147 31.947 29.6147L31.9469 29.6148Z" fill="#8B5CF6"/>
</svg>
