<svg width="57" height="76" viewBox="0 0 57 76" fill="none" xmlns="http://www.w3.org/2000/svg">
<path d="M28.25 0C43.844 0 56.5 12.6529 56.5 28.2432C56.5 56.4864 28.25 75.3154 28.25 75.3154C28.25 75.3154 0 56.4864 0 28.2432C4.28409e-05 12.6529 12.656 5.15878e-07 28.25 0ZM28.25 9.68359C18.1458 9.68359 9.95508 17.8728 9.95508 27.9746C9.95527 38.0762 18.1459 46.2646 28.25 46.2646C38.3541 46.2646 46.5447 38.0762 46.5449 27.9746C46.5449 17.8728 38.3542 9.6836 28.25 9.68359Z" fill="white"/>
<circle cx="28.5" cy="28.5" r="19.5" fill="white"/>
<path d="M28.25 2C42.74 2 54.5 13.76 54.5 28.25C54.5 54.5 28.25 72 28.25 72C28.25 72 2 54.5 2 28.25C2 13.76 13.76 2 28.25 2ZM28.25 11C18.8612 11 11.25 18.6112 11.25 28C11.25 37.3888 18.8612 45 28.25 45C37.6388 45 45.25 37.3888 45.25 28C45.25 18.6112 37.6388 11 28.25 11Z" fill="#888888"/>
<mask id="mask0_1_921" style="mask-type:luminance" maskUnits="userSpaceOnUse" x="14" y="10" width="31" height="33">
<path d="M31.2789 10.4738L44.0089 19.7628L27.4616 42.4398L14.7316 33.1508L31.2789 10.4738Z" fill="white"/>
</mask>
<g mask="url(#mask0_1_921)">
<path fill-rule="evenodd" clip-rule="evenodd" d="M37.9761 15.5458C37.8348 15.1969 37.5096 14.9596 37.1356 14.9326C31.9694 14.5486 26.5193 17.0011 23.0113 21.8087C19.5027 26.617 18.8296 32.5554 20.7715 37.3585C20.9115 37.7062 21.2367 37.9435 21.6119 37.9718C26.7781 38.3556 32.2281 35.9024 35.7365 31.0943C39.2444 26.287 39.9175 20.3485 37.9761 15.5458ZM36.369 16.8655C32.0212 16.7622 27.5421 18.9392 24.6017 22.9688C21.6606 26.9994 20.954 31.9291 22.3787 36.0382C26.7255 36.1408 31.2045 33.9636 34.1456 29.933C37.086 25.9033 37.7928 20.9738 36.369 16.8655Z" fill="#888888"/>
</g>
<path fill-rule="evenodd" clip-rule="evenodd" d="M33.3661 19.3099L20.8886 36.4095C20.5683 36.8486 20.6646 37.465 21.1036 37.7854C21.5425 38.1056 22.1589 38.0093 22.4793 37.5702L34.9568 20.4706C35.2771 20.0316 35.1808 19.4152 34.742 19.0949C34.3029 18.7746 33.6865 18.8709 33.3661 19.3099Z" fill="#888888"/>
<path fill-rule="evenodd" clip-rule="evenodd" d="M24.4189 27.0501L25.0638 31.1769C25.1476 31.7134 25.6516 32.082 26.1888 31.9981C26.7257 31.9142 27.0931 31.4094 27.0093 30.8728L26.3644 26.746C26.2805 26.2094 25.7764 25.841 25.2395 25.9249C24.7026 26.0088 24.335 26.5135 24.4189 27.0501Z" fill="#888888"/>
<path fill-rule="evenodd" clip-rule="evenodd" d="M30.012 29.4073L25.8852 30.0523C25.3486 30.1361 24.98 30.64 25.0639 31.1769C25.1479 31.7142 25.6527 32.0816 26.189 31.9976L30.316 31.3529C30.8526 31.269 31.221 30.765 31.1371 30.228C31.0532 29.6912 30.5486 29.3235 30.012 29.4073Z" fill="#888888"/>
<path fill-rule="evenodd" clip-rule="evenodd" d="M28.4817 21.4822L29.1264 25.6092C29.2103 26.1458 29.7144 26.5142 30.2514 26.4304C30.7883 26.3465 31.1558 25.8417 31.0719 25.3051L30.427 21.1783C30.3432 20.6418 29.8392 20.2732 29.3023 20.357C28.7653 20.4411 28.3977 20.9458 28.4817 21.4822Z" fill="#888888"/>
<path fill-rule="evenodd" clip-rule="evenodd" d="M34.0744 23.8399L29.9476 24.4848C29.4111 24.5687 29.0424 25.0726 29.1263 25.6095C29.2104 26.1466 29.7151 26.5142 30.2515 26.4302L34.3786 25.7853C34.915 25.7016 35.2834 25.1976 35.1997 24.6604C35.1158 24.1236 34.611 23.7561 34.0744 23.8399Z" fill="#888888"/>
<mask id="mask1_1_921" style="mask-type:luminance" maskUnits="userSpaceOnUse" x="18" y="35" width="6" height="7">
<path d="M21.468 35.5891L23.0845 36.7686L19.8812 41.1585L18.2647 39.979L21.468 35.5891Z" fill="white"/>
</mask>
<g mask="url(#mask1_1_921)">
<path fill-rule="evenodd" clip-rule="evenodd" d="M20.8889 36.409L18.8577 39.1927C18.5373 39.6317 18.6337 40.2481 19.0727 40.5685C19.5116 40.8887 20.128 40.7924 20.4484 40.3534L22.4796 37.5697C22.8 37.1306 22.7036 36.5142 22.2648 36.194C21.8257 35.8736 21.2093 35.97 20.8889 36.409Z" fill="#888888"/>
</g>
</svg>
