<svg width="57" height="76" viewBox="0 0 57 76" fill="none" xmlns="http://www.w3.org/2000/svg">
<path d="M28.25 0C43.844 0 56.5 12.6529 56.5 28.2432C56.5 56.4864 28.25 75.3154 28.25 75.3154C28.25 75.3154 0 56.4864 0 28.2432C4.28409e-05 12.6529 12.656 5.15878e-07 28.25 0ZM28.25 9.68359C18.1458 9.68359 9.95508 17.8728 9.95508 27.9746C9.95527 38.0762 18.1459 46.2646 28.25 46.2646C38.3541 46.2646 46.5447 38.0762 46.5449 27.9746C46.5449 17.8728 38.3542 9.6836 28.25 9.68359Z" fill="white"/>
<circle cx="28.5" cy="28.5" r="19.5" fill="white"/>
<path d="M28.25 2C42.74 2 54.5 13.76 54.5 28.25C54.5 54.5 28.25 72 28.25 72C28.25 72 2 54.5 2 28.25C2 13.76 13.76 2 28.25 2ZM28.25 11C18.8612 11 11.25 18.6112 11.25 28C11.25 37.3888 18.8612 45 28.25 45C37.6388 45 45.25 37.3888 45.25 28C45.25 18.6112 37.6388 11 28.25 11Z" fill="#F97316"/>
<mask id="mask0_1_917" style="mask-type:luminance" maskUnits="userSpaceOnUse" x="14" y="10" width="30" height="33">
<path d="M30.571 10.4738L43.301 19.7628L26.7537 42.4398L14.0237 33.1508L30.571 10.4738Z" fill="white"/>
</mask>
<g mask="url(#mask0_1_917)">
<path fill-rule="evenodd" clip-rule="evenodd" d="M37.2682 15.5458C37.1269 15.1969 36.8017 14.9596 36.4278 14.9326C31.2615 14.5486 25.8115 17.0011 22.3034 21.8087C18.7948 26.617 18.1217 32.5554 20.0636 37.3585C20.2036 37.7062 20.5288 37.9435 20.9041 37.9718C26.0702 38.3556 31.5202 35.9024 35.0287 31.0943C38.5365 26.287 39.2096 20.3485 37.2682 15.5458ZM35.6611 16.8655C31.3133 16.7622 26.8342 18.9392 23.8938 22.9688C20.9527 26.9994 20.2461 31.9291 21.6709 36.0382C26.0176 36.1408 30.4966 33.9636 33.4377 29.933C36.3781 25.9033 37.0849 20.9738 35.6611 16.8655Z" fill="#F97316"/>
</g>
<path fill-rule="evenodd" clip-rule="evenodd" d="M32.6582 19.3099L20.1807 36.4095C19.8604 36.8486 19.9567 37.465 20.3957 37.7854C20.8346 38.1056 21.451 38.0093 21.7714 37.5702L34.2489 20.4706C34.5692 20.0316 34.4729 19.4152 34.0341 19.0949C33.595 18.7746 32.9786 18.8709 32.6582 19.3099Z" fill="#F97316"/>
<path fill-rule="evenodd" clip-rule="evenodd" d="M23.711 27.0501L24.3559 31.1769C24.4397 31.7134 24.9437 32.082 25.4809 31.9981C26.0178 31.9142 26.3852 31.4094 26.3014 30.8728L25.6565 26.746C25.5726 26.2094 25.0685 25.841 24.5316 25.9249C23.9947 26.0088 23.6271 26.5135 23.711 27.0501Z" fill="#F97316"/>
<path fill-rule="evenodd" clip-rule="evenodd" d="M29.3041 29.4073L25.1773 30.0523C24.6408 30.1361 24.2721 30.64 24.356 31.1769C24.44 31.7142 24.9448 32.0816 25.4811 31.9976L29.6082 31.3529C30.1447 31.269 30.5131 30.765 30.4292 30.228C30.3453 29.6912 29.8407 29.3235 29.3041 29.4073Z" fill="#F97316"/>
<path fill-rule="evenodd" clip-rule="evenodd" d="M27.7738 21.4822L28.4186 25.6092C28.5024 26.1458 29.0065 26.5142 29.5435 26.4304C30.0804 26.3465 30.4479 25.8417 30.3641 25.3051L29.7191 21.1783C29.6353 20.6418 29.1314 20.2732 28.5944 20.357C28.0574 20.4411 27.6898 20.9458 27.7738 21.4822Z" fill="#F97316"/>
<path fill-rule="evenodd" clip-rule="evenodd" d="M33.3665 23.8399L29.2397 24.4848C28.7032 24.5687 28.3346 25.0726 28.4184 25.6095C28.5025 26.1466 29.0072 26.5142 29.5436 26.4302L33.6707 25.7853C34.2071 25.7016 34.5756 25.1976 34.4918 24.6604C34.4079 24.1236 33.9031 23.7561 33.3665 23.8399Z" fill="#F97316"/>
<mask id="mask1_1_917" style="mask-type:luminance" maskUnits="userSpaceOnUse" x="17" y="35" width="6" height="7">
<path d="M20.7601 35.5891L22.3766 36.7686L19.1733 41.1585L17.5568 39.979L20.7601 35.5891Z" fill="white"/>
</mask>
<g mask="url(#mask1_1_917)">
<path fill-rule="evenodd" clip-rule="evenodd" d="M20.1811 36.409L18.1498 39.1927C17.8295 39.6317 17.9258 40.2481 18.3648 40.5685C18.8037 40.8887 19.4201 40.7924 19.7405 40.3534L21.7717 37.5697C22.0921 37.1306 21.9957 36.5142 21.5569 36.194C21.1178 35.8736 20.5014 35.97 20.1811 36.409Z" fill="#F97316"/>
</g>
</svg>
