<svg width="57" height="76" viewBox="0 0 57 76" fill="none" xmlns="http://www.w3.org/2000/svg">
<path d="M28.25 0C43.844 0 56.5 12.6529 56.5 28.2432C56.5 56.4864 28.25 75.3154 28.25 75.3154C28.25 75.3154 0 56.4864 0 28.2432C4.28409e-05 12.6529 12.656 5.15878e-07 28.25 0ZM28.25 9.68359C18.1458 9.68359 9.95508 17.8728 9.95508 27.9746C9.95527 38.0762 18.1459 46.2646 28.25 46.2646C38.3541 46.2646 46.5447 38.0762 46.5449 27.9746C46.5449 17.8728 38.3542 9.6836 28.25 9.68359Z" fill="white"/>
<circle cx="28.5" cy="28.5" r="19.5" fill="white"/>
<path d="M28.25 2C42.74 2 54.5 13.76 54.5 28.25C54.5 54.5 28.25 72 28.25 72C28.25 72 2 54.5 2 28.25C2 13.76 13.76 2 28.25 2ZM28.25 11C18.8612 11 11.25 18.6112 11.25 28C11.25 37.3888 18.8612 45 28.25 45C37.6388 45 45.25 37.3888 45.25 28C45.25 18.6112 37.6388 11 28.25 11Z" fill="#8B5CF6"/>
<mask id="mask0_1_920" style="mask-type:luminance" maskUnits="userSpaceOnUse" x="14" y="10" width="30" height="32">
<path d="M30.571 10L43.301 19.289L26.7537 41.966L14.0237 32.677L30.571 10Z" fill="white"/>
</mask>
<g mask="url(#mask0_1_920)">
<path fill-rule="evenodd" clip-rule="evenodd" d="M37.2682 15.072C37.1269 14.7231 36.8017 14.4858 36.4278 14.4587C31.2615 14.0748 25.8115 16.5273 22.3034 21.3349C18.7948 26.1432 18.1217 32.0816 20.0636 36.8847C20.2036 37.2324 20.5288 37.4697 20.9041 37.498C26.0702 37.8818 31.5202 35.4285 35.0287 30.6204C38.5365 25.8132 39.2096 19.8747 37.2682 15.072ZM35.6611 16.3917C31.3133 16.2884 26.8342 18.4654 23.8938 22.495C20.9527 26.5256 20.2461 31.4553 21.6709 35.5644C26.0176 35.667 30.4966 33.4898 33.4377 29.4592C36.3781 25.4295 37.0849 20.5 35.6611 16.3917Z" fill="#8B5CF6"/>
</g>
<path fill-rule="evenodd" clip-rule="evenodd" d="M32.6582 18.8361L20.1807 35.9357C19.8604 36.3748 19.9567 36.9912 20.3957 37.3116C20.8346 37.6318 21.451 37.5354 21.7714 37.0964L34.2489 19.9968C34.5692 19.5578 34.4729 18.9413 34.0341 18.6211C33.595 18.3008 32.9786 18.3971 32.6582 18.8361Z" fill="#8B5CF6"/>
<path fill-rule="evenodd" clip-rule="evenodd" d="M23.711 26.5762L24.3559 30.703C24.4397 31.2396 24.9437 31.6082 25.4809 31.5243C26.0178 31.4403 26.3852 30.9355 26.3014 30.399L25.6565 26.2722C25.5726 25.7356 25.0685 25.3672 24.5316 25.4511C23.9947 25.535 23.6271 26.0397 23.711 26.5762Z" fill="#8B5CF6"/>
<path fill-rule="evenodd" clip-rule="evenodd" d="M29.3041 28.9335L25.1773 29.5784C24.6408 29.6623 24.2721 30.1662 24.356 30.7031C24.44 31.2404 24.9448 31.6078 25.4811 31.5238L29.6082 30.8791C30.1447 30.7952 30.5131 30.2911 30.4292 29.7542C30.3453 29.2173 29.8407 28.8497 29.3041 28.9335Z" fill="#8B5CF6"/>
<path fill-rule="evenodd" clip-rule="evenodd" d="M27.7738 21.0084L28.4186 25.1354C28.5024 25.6719 29.0065 26.0404 29.5435 25.9566C30.0804 25.8727 30.4479 25.3679 30.3641 24.8313L29.7191 20.7045C29.6353 20.168 29.1314 19.7993 28.5944 19.8832C28.0574 19.9673 27.6898 20.472 27.7738 21.0084Z" fill="#8B5CF6"/>
<path fill-rule="evenodd" clip-rule="evenodd" d="M33.3665 23.3661L29.2397 24.011C28.7032 24.0949 28.3346 24.5988 28.4184 25.1357C28.5025 25.6728 29.0072 26.0404 29.5436 25.9564L33.6707 25.3115C34.2071 25.2278 34.5756 24.7237 34.4918 24.1866C34.4079 23.6497 33.9031 23.2823 33.3665 23.3661Z" fill="#8B5CF6"/>
<mask id="mask1_1_920" style="mask-type:luminance" maskUnits="userSpaceOnUse" x="17" y="35" width="6" height="6">
<path d="M20.7601 35.1152L22.3766 36.2948L19.1733 40.6847L17.5568 39.5052L20.7601 35.1152Z" fill="white"/>
</mask>
<g mask="url(#mask1_1_920)">
<path fill-rule="evenodd" clip-rule="evenodd" d="M20.1811 35.9352L18.1498 38.7189C17.8295 39.1579 17.9258 39.7743 18.3648 40.0947C18.8037 40.4149 19.4201 40.3186 19.7405 39.8795L21.7717 37.0959C22.0921 36.6568 21.9957 36.0404 21.5569 35.7202C21.1178 35.3998 20.5014 35.4961 20.1811 35.9352Z" fill="#8B5CF6"/>
</g>
</svg>
