<svg width="57" height="76" viewBox="0 0 57 76" fill="none" xmlns="http://www.w3.org/2000/svg">
<path d="M28.25 0C43.844 0 56.5 12.6529 56.5 28.2432C56.5 56.4864 28.25 75.3154 28.25 75.3154C28.25 75.3154 0 56.4864 0 28.2432C4.28409e-05 12.6529 12.656 5.15878e-07 28.25 0ZM28.25 9.68359C18.1458 9.68359 9.95508 17.8728 9.95508 27.9746C9.95527 38.0762 18.1459 46.2646 28.25 46.2646C38.3541 46.2646 46.5447 38.0762 46.5449 27.9746C46.5449 17.8728 38.3542 9.6836 28.25 9.68359Z" fill="white"/>
<circle cx="28.5" cy="28.5" r="19.5" fill="white"/>
<path d="M28.25 2C42.74 2 54.5 13.76 54.5 28.25C54.5 54.5 28.25 72 28.25 72C28.25 72 2 54.5 2 28.25C2 13.76 13.76 2 28.25 2ZM28.25 11C18.8612 11 11.25 18.6112 11.25 28C11.25 37.3888 18.8612 45 28.25 45C37.6388 45 45.25 37.3888 45.25 28C45.25 18.6112 37.6388 11 28.25 11Z" fill="#8B5CF6"/>
<mask id="mask0_1_1294" style="mask-type:luminance" maskUnits="userSpaceOnUse" x="20" y="21" width="17" height="23">
<path d="M20.6836 21.8331H36.3165V43.2923H20.6836V21.8331Z" fill="white"/>
</mask>
<g mask="url(#mask0_1_1294)">
<path d="M32.2868 43.2924H24.7139C23.1482 43.2924 21.8741 42.0182 21.8741 40.4526C21.8741 40.3011 21.91 40.1534 21.98 40.019C22.0462 39.8884 23.6403 36.6357 21.9403 32.2777C20.5335 28.6614 20.6206 24.7517 20.7986 22.7435C20.8439 22.2228 21.3231 21.8404 21.8247 21.8838C22.3473 21.9292 22.7316 22.3893 22.6841 22.9099C22.5535 24.3962 22.3889 28.2131 23.7027 31.5886C25.4579 36.0833 24.2044 39.648 23.7824 40.6232C23.8636 41.0643 24.25 41.3995 24.7138 41.3995H32.2868C32.7506 41.3995 33.1368 41.0643 33.2183 40.6232C32.9646 40.0269 32.3986 38.4535 32.3986 36.2876C32.3986 34.7048 32.6997 33.1239 33.2979 31.5923C34.5626 28.3377 34.4792 24.7559 34.3165 22.9118C34.2711 22.3911 34.6554 21.931 35.1761 21.8857C35.6797 21.8232 36.1569 22.2246 36.2022 22.7453C36.3802 24.756 36.4674 28.6676 35.0605 32.2796C34.5495 33.5916 34.2918 34.9416 34.2918 36.2895C34.2918 38.5386 35.0169 40.0136 35.0246 40.0287C35.0888 40.1574 35.1266 40.3051 35.1266 40.4528C35.1266 42.0185 33.8524 43.2926 32.2868 43.2926L32.2868 43.2924Z" fill="#8B5CF6"/>
</g>
<mask id="mask1_1_1294" style="mask-type:luminance" maskUnits="userSpaceOnUse" x="19" y="13" width="19" height="18">
<path d="M19 13H38V30.0705H19V13Z" fill="white"/>
</mask>
<g mask="url(#mask1_1_1294)">
<path d="M27.553 30.0399C25.9873 30.0399 24.7132 28.7658 24.7132 27.1999V24.3601H23.7664C21.1575 24.3601 19.0333 22.2357 19.0333 19.6268C19.0333 17.0178 21.1575 14.8937 23.7664 14.8937C24.0788 14.8937 24.3742 14.9202 24.6582 14.9752C25.5423 13.7407 26.9548 13.0004 28.4998 13.0004C30.0429 13.0004 31.457 13.7406 32.3413 14.9752C32.625 14.9202 32.9205 14.8937 33.2329 14.8937C35.8437 14.8937 37.966 17.0178 37.966 19.6268C37.966 22.2357 35.8437 24.3601 33.2329 24.3601H30.3931V27.1999C30.3931 28.7658 29.119 30.0399 27.5531 30.0399H27.553ZM23.7664 16.7868C22.2007 16.7868 20.9266 18.0609 20.9266 19.6266C20.9266 21.1925 22.2007 22.4666 23.7664 22.4666H25.6596C26.1822 22.4666 26.6064 22.8905 26.6064 23.4131V27.1997C26.6064 27.7223 27.0303 28.1465 27.5529 28.1465C28.0755 28.1465 28.4997 27.7223 28.4997 27.1997V23.4131C28.4997 22.8905 28.9236 22.4666 29.4462 22.4666H33.2328C34.7984 22.4666 36.0725 21.1925 36.0725 19.6266C36.0725 18.0609 34.7984 16.7868 33.2328 16.7868C32.8711 16.7868 32.555 16.8436 32.2653 16.963C31.8052 17.1504 31.277 16.9496 31.0592 16.5047C30.5688 15.5108 29.5882 14.8935 28.4997 14.8935C27.4111 14.8935 26.4302 15.5108 25.9417 16.5047C25.7221 16.9496 25.1976 17.1523 24.7337 16.963C24.4442 16.8436 24.128 16.7868 23.7663 16.7868H23.7664Z" fill="#8B5CF6"/>
</g>
</svg>
