<svg width="57" height="76" viewBox="0 0 57 76" fill="none" xmlns="http://www.w3.org/2000/svg">
<path d="M28.25 0C43.844 0 56.5 12.6529 56.5 28.2432C56.5 56.4864 28.25 75.3154 28.25 75.3154C28.25 75.3154 0 56.4864 0 28.2432C4.28409e-05 12.6529 12.656 5.15878e-07 28.25 0ZM28.25 9.68359C18.1458 9.68359 9.95508 17.8728 9.95508 27.9746C9.95527 38.0762 18.1459 46.2646 28.25 46.2646C38.3541 46.2646 46.5447 38.0762 46.5449 27.9746C46.5449 17.8728 38.3542 9.6836 28.25 9.68359Z" fill="white"/>
<circle cx="28.5" cy="28.5" r="19.5" fill="white"/>
<path d="M28.25 2C42.74 2 54.5 13.76 54.5 28.25C54.5 54.5 28.25 72 28.25 72C28.25 72 2 54.5 2 28.25C2 13.76 13.76 2 28.25 2ZM28.25 11C18.8612 11 11.25 18.6112 11.25 28C11.25 37.3888 18.8612 45 28.25 45C37.6388 45 45.25 37.3888 45.25 28C45.25 18.6112 37.6388 11 28.25 11Z" fill="#3B82F6"/>
<path d="M19.9491 26.8614H18.7857C16.6997 26.8614 15 28.5611 15 30.6472V31.8832C15 33.9692 16.6997 35.6689 18.7857 35.6689H20.3537C21.2946 38.2639 23.7531 40 26.5206 40H32.747C36.369 40 39.3186 37.0504 39.3186 33.4283L39.3184 24.6981H19.9494L19.9491 26.8614ZM20.4035 27.0888V25.1482H38.8639V33.4287C38.8639 36.8008 36.1189 39.546 32.7466 39.546H26.5202C23.8889 39.546 21.5575 37.869 20.7211 35.3694C20.5075 34.7378 20.4029 34.0833 20.4029 33.4289L20.4035 27.0888ZM19.9854 34.083C19.9945 34.1921 20.0082 34.3056 20.0263 34.4147C20.0353 34.4783 20.049 34.5374 20.0581 34.601C20.0763 34.7009 20.0989 34.8055 20.1216 34.9054C20.1352 34.969 20.1534 35.0326 20.1672 35.0917C20.1762 35.1325 20.1855 35.1736 20.199 35.2144H18.7857C16.9496 35.2144 15.4544 33.7193 15.4544 31.8831V30.6471C15.4544 28.8109 16.9496 27.3158 18.7857 27.3158H19.9491V33.433C19.9491 33.5965 19.9582 33.7603 19.9674 33.9237C19.9719 33.9785 19.9809 34.0331 19.9854 34.0832L19.9854 34.083Z" fill="#3B82F6" stroke="#3B82F6" stroke-width="2"/>
<path d="M24.6936 22.9305C24.7572 22.8306 26.2661 20.4174 24.6435 19.2222C24.3754 19.0266 24.2299 18.7813 24.2026 18.4768C24.1072 17.5134 25.1933 16.3228 25.2025 16.309L24.8663 16C24.8162 16.0546 23.6348 17.3497 23.7484 18.5176C23.7892 18.954 23.9983 19.313 24.3756 19.5857C25.6572 20.531 24.3255 22.6624 24.312 22.6852L24.6936 22.9305Z" fill="#3B82F6" stroke="#3B82F6" stroke-width="2"/>
<path d="M29.7613 22.9305C29.8249 22.8306 31.3338 20.4174 29.7112 19.2222C29.4431 19.0266 29.2976 18.7813 29.2704 18.4768C29.175 17.5134 30.261 16.3228 30.2703 16.309L29.934 16C29.884 16.0546 28.7025 17.3497 28.8162 18.5176C28.857 18.954 29.066 19.313 29.4433 19.5857C30.7249 20.531 29.3932 22.6624 29.3797 22.6852L29.7613 22.9305Z" fill="#3B82F6" stroke="#3B82F6" stroke-width="2"/>
<path d="M34.8284 22.9305C34.892 22.8306 36.4009 20.4174 34.7784 19.2222C34.5102 19.0266 34.3648 18.7813 34.3375 18.4768C34.2466 17.5087 35.3284 16.318 35.3374 16.309L35.0012 16C34.9511 16.0546 33.7696 17.3497 33.8833 18.5176C33.9241 18.954 34.1332 19.313 34.5105 19.5857C35.792 20.531 34.4604 22.6624 34.4469 22.6852L34.8284 22.9305Z" fill="#3B82F6" stroke="#3B82F6" stroke-width="2"/>
</svg>
