<svg width="57" height="76" viewBox="0 0 57 76" fill="none" xmlns="http://www.w3.org/2000/svg">
<path d="M28.25 0C43.844 0 56.5 12.6529 56.5 28.2432C56.5 56.4864 28.25 75.3154 28.25 75.3154C28.25 75.3154 0 56.4864 0 28.2432C4.28409e-05 12.6529 12.656 5.15878e-07 28.25 0ZM28.25 9.68359C18.1458 9.68359 9.95508 17.8728 9.95508 27.9746C9.95527 38.0762 18.1459 46.2646 28.25 46.2646C38.3541 46.2646 46.5447 38.0762 46.5449 27.9746C46.5449 17.8728 38.3542 9.6836 28.25 9.68359Z" fill="white"/>
<circle cx="28.5" cy="28.5" r="19.5" fill="white"/>
<path d="M28.25 2C42.74 2 54.5 13.76 54.5 28.25C54.5 54.5 28.25 72 28.25 72C28.25 72 2 54.5 2 28.25C2 13.76 13.76 2 28.25 2ZM28.25 11C18.8612 11 11.25 18.6112 11.25 28C11.25 37.3888 18.8612 45 28.25 45C37.6388 45 45.25 37.3888 45.25 28C45.25 18.6112 37.6388 11 28.25 11Z" fill="#8B5CF6"/>
<path d="M39.2005 31.6006H33.6003V22.0005H34.8004C35.0862 22.0005 35.3502 21.848 35.4931 21.6005C35.6361 21.353 35.636 21.0479 35.4931 20.8004C35.3502 20.5529 35.0862 20.4005 34.8004 20.4005H33.4896C33.3965 20.2377 33.249 20.1133 33.0729 20.0489C32.8971 19.9846 32.7039 19.9846 32.5281 20.0489C32.352 20.1132 32.2045 20.2377 32.1114 20.4005H31.0894C30.9965 20.2377 30.8491 20.1133 30.673 20.0489C30.4969 19.9846 30.304 19.9846 30.1279 20.0489C29.9521 20.1132 29.8044 20.2377 29.7115 20.4005H28.6895C28.5964 20.2377 28.4489 20.1133 28.2731 20.0489C28.097 19.9846 27.9039 19.9846 27.728 20.0489C27.5519 20.1132 27.4045 20.2377 27.3114 20.4005H16.8001C16.5143 20.4005 16.2501 20.5529 16.1072 20.8004C15.9643 21.0479 15.9643 21.353 16.1072 21.6005C16.2501 21.848 16.5143 22.0005 16.8001 22.0005H27.2001V31.6006H23.2001C22.9879 31.6006 22.7845 31.6848 22.6344 31.8348C22.4843 31.9849 22.4 32.1883 22.4 32.4005V35.2006C22.4018 36.228 22.7624 37.2224 23.4198 38.012C24.0772 38.8016 24.9898 39.3365 26 39.5241V41.2005C26 41.4127 26.0843 41.6162 26.2344 41.7662C26.3844 41.9163 26.5879 42.0007 26.8001 42.0007H35.5999C35.8121 42.0007 36.0156 41.9163 36.1656 41.7662C36.3157 41.6162 36.4 41.4127 36.4 41.2005V39.5241C37.4102 39.3365 38.3228 38.8016 38.9802 38.012C39.6376 37.2224 39.9982 36.228 40 35.2006V32.4005C40 32.1884 39.9156 31.9849 39.7656 31.8348C39.6155 31.6848 39.4121 31.6006 39.1999 31.6006H39.2005ZM31.2004 22.0005H32.0003V31.6006H31.2004V22.0005ZM28.8005 22.0005H29.6004V31.6006H28.8003L28.8005 22.0005ZM34.8005 40.4005H27.6003V39.6004H34.8005V40.4005ZM38.4006 35.2002C38.3998 35.9426 38.1044 36.6542 37.5794 37.1792C37.0546 37.7042 36.3428 37.9993 35.6005 38.0001H26.8007C26.0583 37.9993 25.3465 37.7041 24.8217 37.1792C24.2967 36.6542 24.0016 35.9426 24.0006 35.2002V33.2003H38.4006V35.2002Z" fill="#8B5CF6"/>
<path d="M16.8006 19.6H34.8007C35.0865 19.6 35.3505 19.4476 35.4934 19.2001C35.6364 18.9525 35.6363 18.6477 35.4934 18.4002C35.3505 18.1526 35.0865 18 34.8007 18H16.8006C16.5148 18 16.2506 18.1526 16.1077 18.4002C15.9648 18.6477 15.9648 18.9525 16.1077 19.2001C16.2506 19.4476 16.5148 19.6 16.8006 19.6Z" fill="#8B5CF6"/>
</svg>
