<svg width="57" height="76" viewBox="0 0 57 76" fill="none" xmlns="http://www.w3.org/2000/svg">
<path d="M28.25 0C43.844 0 56.5 12.6529 56.5 28.2432C56.5 56.4864 28.25 75.3154 28.25 75.3154C28.25 75.3154 0 56.4864 0 28.2432C4.28409e-05 12.6529 12.656 5.15878e-07 28.25 0ZM28.25 9.68359C18.1458 9.68359 9.95508 17.8728 9.95508 27.9746C9.95527 38.0762 18.1459 46.2646 28.25 46.2646C38.3541 46.2646 46.5447 38.0762 46.5449 27.9746C46.5449 17.8728 38.3542 9.6836 28.25 9.68359Z" fill="white"/>
<circle cx="28.5" cy="28.5" r="19.5" fill="white"/>
<path d="M28.25 2C42.74 2 54.5 13.76 54.5 28.25C54.5 54.5 28.25 72 28.25 72C28.25 72 2 54.5 2 28.25C2 13.76 13.76 2 28.25 2ZM28.25 11C18.8612 11 11.25 18.6112 11.25 28C11.25 37.3888 18.8612 45 28.25 45C37.6388 45 45.25 37.3888 45.25 28C45.25 18.6112 37.6388 11 28.25 11Z" fill="#F97316"/>
<path d="M21.292 16.7982C25.3322 14.4006 31.9911 14.4015 36.0312 16.7991C38.126 17.998 39.3226 19.7211 39.1729 21.5941V34.4066C39.1729 36.2799 37.9759 37.9286 35.8809 39.2025C33.861 40.4013 31.2422 41.0013 28.5488 41.0013C25.9304 41.0013 23.2368 40.4013 21.2168 39.2025C19.2718 38.0036 18.1495 36.4297 18 34.7064V21.5941C18 19.7207 19.197 18.072 21.292 16.7982ZM28.6982 16.4232C26.3042 16.4232 23.9099 17.0225 22.1143 18.0716C20.4684 19.0459 19.5703 20.32 19.5703 21.5189C19.5704 22.8676 20.4685 24.0663 22.1143 25.0403C25.7061 27.2135 31.6915 27.2137 35.2822 25.1155C36.9281 24.1416 37.826 22.8678 37.8262 21.5941C37.8262 20.2453 36.9281 19.0457 35.2822 18.0716C33.4869 16.9478 31.0923 16.4232 28.6982 16.4232ZM25.1826 19.4964C27.1278 18.3726 30.2701 18.3726 32.1406 19.4964C34.0855 20.6202 34.0856 22.4937 32.1406 23.6175C30.1955 24.7413 27.0532 24.7412 25.1826 23.6175C23.3121 22.4937 23.3121 20.6203 25.1826 19.4964Z" fill="#F97316"/>
</svg>
