<svg width="57" height="76" viewBox="0 0 57 76" fill="none" xmlns="http://www.w3.org/2000/svg">
<path d="M28.25 0C43.844 0 56.5 12.6529 56.5 28.2432C56.5 56.4864 28.25 75.3154 28.25 75.3154C28.25 75.3154 0 56.4864 0 28.2432C4.28409e-05 12.6529 12.656 5.15878e-07 28.25 0ZM28.25 9.68359C18.1458 9.68359 9.95508 17.8728 9.95508 27.9746C9.95527 38.0762 18.1459 46.2646 28.25 46.2646C38.3541 46.2646 46.5447 38.0762 46.5449 27.9746C46.5449 17.8728 38.3542 9.6836 28.25 9.68359Z" fill="white"/>
<circle cx="28.5" cy="28.5" r="19.5" fill="white"/>
<path d="M28.25 2C42.74 2 54.5 13.76 54.5 28.25C54.5 54.5 28.25 72 28.25 72C28.25 72 2 54.5 2 28.25C2 13.76 13.76 2 28.25 2ZM28.25 11C18.8612 11 11.25 18.6112 11.25 28C11.25 37.3888 18.8612 45 28.25 45C37.6388 45 45.25 37.3888 45.25 28C45.25 18.6112 37.6388 11 28.25 11Z" fill="#8B5CF6"/>
<path fill-rule="evenodd" clip-rule="evenodd" d="M21.292 16.7977C25.3322 14.4001 31.9911 14.4011 36.0312 16.7987C38.126 17.9975 39.3226 19.7206 39.1729 21.5936V34.4061C39.1729 36.2795 37.9759 37.9282 35.8809 39.202C33.861 40.4008 31.2422 41.0009 28.5488 41.0009C25.9304 41.0008 23.2368 40.4008 21.2168 39.202C19.2718 38.0032 18.1495 36.4293 18 34.7059V21.5936C18 19.7202 19.197 18.0716 21.292 16.7977ZM28.6982 16.4227C26.3042 16.4227 23.9099 17.0221 22.1143 18.0712C20.4684 19.0455 19.5703 20.3196 19.5703 21.5184C19.5704 22.8672 20.4685 24.0659 22.1143 25.0399C25.7061 27.2131 31.6915 27.2133 35.2822 25.1151C36.9281 24.1412 37.826 22.8673 37.8262 21.5936C37.8262 20.2448 36.9281 19.0453 35.2822 18.0712C33.4869 16.9473 31.0923 16.4227 28.6982 16.4227ZM25.1826 19.496C27.1278 18.3722 30.2701 18.3722 32.1406 19.496C34.0855 20.6198 34.0856 22.4932 32.1406 23.6171C30.1955 24.7408 27.0532 24.7407 25.1826 23.6171C23.3121 22.4933 23.3121 20.6198 25.1826 19.496Z" fill="#8B5CF6"/>
</svg>
