<svg width="57" height="76" viewBox="0 0 57 76" fill="none" xmlns="http://www.w3.org/2000/svg">
<path d="M28.25 0C43.844 0 56.5 12.6529 56.5 28.2432C56.5 56.4864 28.25 75.3154 28.25 75.3154C28.25 75.3154 0 56.4864 0 28.2432C4.28409e-05 12.6529 12.656 5.15878e-07 28.25 0ZM28.25 9.68359C18.1458 9.68359 9.95508 17.8728 9.95508 27.9746C9.95527 38.0762 18.1459 46.2646 28.25 46.2646C38.3541 46.2646 46.5447 38.0762 46.5449 27.9746C46.5449 17.8728 38.3542 9.6836 28.25 9.68359Z" fill="white"/>
<circle cx="28.5" cy="28.5" r="19.5" fill="white"/>
<path d="M42 24.9287C42 23.4516 40.8227 22.2502 39.3751 22.2502H39.2618C38.9149 20.8805 37.7909 19.8251 36.3987 19.6114C35.7224 17.9822 34.15 16.8927 32.3751 16.8927C31.8807 16.8927 31.3895 16.9789 30.9253 17.1451C30.1273 16.4107 29.0925 16 28.0001 16C26.9077 16 25.873 16.4107 25.0749 17.1451C24.6108 16.9789 24.1193 16.8927 23.6249 16.8927C21.8499 16.8927 20.2776 17.982 19.6013 19.6112C18.2093 19.8252 17.0856 20.8805 16.7382 22.25H16.6249C15.1773 22.25 14 23.4514 14 24.9285C14 29.7053 16.6722 34.295 20.9999 37.0325V38.3215C20.9999 39.7987 22.1772 41 23.6248 41H32.3748C33.8224 41 34.9997 39.7986 34.9997 38.3215V37.0326C39.3275 34.2945 41.9995 29.7055 41.9995 24.9287L42 24.9287ZM20.1317 21.3581H20.1334L20.2087 21.3625C20.6319 21.3818 20.9844 21.0974 21.086 20.6915C21.3832 19.5064 22.4277 18.6785 23.625 18.6785C24.065 18.6785 24.4838 18.7861 24.8687 18.9982C25.2385 19.2017 25.6983 19.108 25.9629 18.7762C26.4653 18.1468 27.2074 17.7857 28.0002 17.7857C28.793 17.7857 29.5348 18.1468 30.0368 18.7764C30.3014 19.108 30.7612 19.202 31.131 18.9984C31.5163 18.7862 31.9351 18.6785 32.3752 18.6785C33.5727 18.6785 34.6169 19.5061 34.9143 20.6915C35.0164 21.0974 35.3742 21.3823 35.7916 21.3625L35.8752 21.3572C36.52 21.3572 37.0783 21.7192 37.3818 22.25H18.6186C18.9225 21.7196 19.4817 21.3581 20.1315 21.3581L20.1317 21.3581ZM32.3752 39.2143H23.6252C23.1426 39.2143 22.7503 38.8138 22.7503 38.3216V37.4288H33.2504V38.3216C33.2502 38.814 32.8579 39.2143 32.3753 39.2143H32.3752ZM33.8877 35.6428H22.1127C18.1822 33.2443 15.7503 29.1595 15.7503 24.9283C15.7503 24.4358 16.1428 24.0355 16.6252 24.0355H39.3749C39.8575 24.0355 40.2498 24.436 40.2498 24.9283C40.25 29.1591 37.8181 33.2439 33.8874 35.6428H33.8877Z" fill="#8B5CF6"/>
<path d="M28.25 2C42.74 2 54.5 13.76 54.5 28.25C54.5 54.5 28.25 72 28.25 72C28.25 72 2 54.5 2 28.25C2 13.76 13.76 2 28.25 2ZM28.25 11C18.8612 11 11.25 18.6112 11.25 28C11.25 37.3888 18.8612 45 28.25 45C37.6388 45 45.25 37.3888 45.25 28C45.25 18.6112 37.6388 11 28.25 11Z" fill="#8B5CF6"/>
</svg>
