<svg width="57" height="76" viewBox="0 0 57 76" fill="none" xmlns="http://www.w3.org/2000/svg">
<path d="M28.25 0C43.844 0 56.5 12.6529 56.5 28.2432C56.5 56.4864 28.25 75.3154 28.25 75.3154C28.25 75.3154 0 56.4864 0 28.2432C4.28409e-05 12.6529 12.656 5.15878e-07 28.25 0ZM28.25 9.68359C18.1458 9.68359 9.95508 17.8728 9.95508 27.9746C9.95527 38.0762 18.1459 46.2646 28.25 46.2646C38.3541 46.2646 46.5447 38.0762 46.5449 27.9746C46.5449 17.8728 38.3542 9.6836 28.25 9.68359Z" fill="white"/>
<circle cx="28.5" cy="28.5" r="19.5" fill="white"/>
<path d="M41.75 24.9287C41.75 23.4516 40.5727 22.2502 39.1251 22.2502H39.0118C38.6649 20.8805 37.5409 19.8251 36.1487 19.6114C35.4724 17.9822 33.9 16.8927 32.1251 16.8927C31.6307 16.8927 31.1395 16.9789 30.6753 17.1451C29.8773 16.4107 28.8425 16 27.7501 16C26.6577 16 25.623 16.4107 24.8249 17.1451C24.3608 16.9789 23.8693 16.8927 23.3749 16.8927C21.5999 16.8927 20.0276 17.982 19.3513 19.6112C17.9593 19.8252 16.8356 20.8805 16.4882 22.25H16.3749C14.9273 22.25 13.75 23.4514 13.75 24.9285C13.75 29.7053 16.4222 34.295 20.7499 37.0325V38.3215C20.7499 39.7987 21.9272 41 23.3748 41H32.1248C33.5724 41 34.7497 39.7986 34.7497 38.3215V37.0326C39.0775 34.2945 41.7495 29.7055 41.7495 24.9287L41.75 24.9287ZM19.8817 21.3581H19.8834L19.9587 21.3625C20.3819 21.3818 20.7344 21.0974 20.836 20.6915C21.1332 19.5064 22.1777 18.6785 23.375 18.6785C23.815 18.6785 24.2338 18.7861 24.6187 18.9982C24.9885 19.2017 25.4483 19.108 25.7129 18.7762C26.2153 18.1468 26.9574 17.7857 27.7502 17.7857C28.543 17.7857 29.2848 18.1468 29.7868 18.7764C30.0514 19.108 30.5112 19.202 30.881 18.9984C31.2663 18.7862 31.6851 18.6785 32.1252 18.6785C33.3227 18.6785 34.3669 19.5061 34.6643 20.6915C34.7664 21.0974 35.1242 21.3823 35.5416 21.3625L35.6252 21.3572C36.27 21.3572 36.8283 21.7192 37.1318 22.25H18.3686C18.6725 21.7196 19.2317 21.3581 19.8815 21.3581L19.8817 21.3581ZM32.1252 39.2143H23.3752C22.8926 39.2143 22.5003 38.8138 22.5003 38.3216V37.4288H33.0004V38.3216C33.0002 38.814 32.6079 39.2143 32.1253 39.2143H32.1252ZM33.6377 35.6428H21.8627C17.9322 33.2443 15.5003 29.1595 15.5003 24.9283C15.5003 24.4358 15.8928 24.0355 16.3752 24.0355H39.1249C39.6075 24.0355 39.9998 24.436 39.9998 24.9283C40 29.1591 37.5681 33.2439 33.6374 35.6428H33.6377Z" fill="#F97316"/>
<path d="M28.25 2C42.74 2 54.5 13.76 54.5 28.25C54.5 54.5 28.25 72 28.25 72C28.25 72 2 54.5 2 28.25C2 13.76 13.76 2 28.25 2ZM28.25 11C18.8612 11 11.25 18.6112 11.25 28C11.25 37.3888 18.8612 45 28.25 45C37.6388 45 45.25 37.3888 45.25 28C45.25 18.6112 37.6388 11 28.25 11Z" fill="#F97316"/>
</svg>
