<svg width="57" height="76" viewBox="0 0 57 76" fill="none" xmlns="http://www.w3.org/2000/svg">
<path d="M28.25 0C43.844 0 56.5 12.6529 56.5 28.2432C56.5 56.4864 28.25 75.3154 28.25 75.3154C28.25 75.3154 0 56.4864 0 28.2432C4.28409e-05 12.6529 12.656 5.15878e-07 28.25 0ZM28.25 9.68359C18.1458 9.68359 9.95508 17.8728 9.95508 27.9746C9.95527 38.0762 18.1459 46.2646 28.25 46.2646C38.3541 46.2646 46.5447 38.0762 46.5449 27.9746C46.5449 17.8728 38.3542 9.6836 28.25 9.68359Z" fill="white"/>
<circle cx="28.5" cy="28.5" r="19.5" fill="white"/>
<path d="M28.25 2C42.74 2 54.5 13.76 54.5 28.25C54.5 54.5 28.25 72 28.25 72C28.25 72 2 54.5 2 28.25C2 13.76 13.76 2 28.25 2ZM28.25 11C18.8612 11 11.25 18.6112 11.25 28C11.25 37.3888 18.8612 45 28.25 45C37.6388 45 45.25 37.3888 45.25 28C45.25 18.6112 37.6388 11 28.25 11Z" fill="#22C55E"/>
<path fill-rule="evenodd" clip-rule="evenodd" d="M41.4369 25.156C41.4316 21.8091 39.7805 18.6793 37.0208 16.7851C34.2614 14.8913 30.7468 14.4761 27.6222 15.6749C24.4973 16.8735 22.162 19.5328 21.3771 22.7865C21.2736 23.2175 21.0451 23.6087 20.7207 23.9109C20.3962 24.2131 19.9897 24.4128 19.5523 24.4855C17.0505 24.9012 15 27.0003 15 30.2532V34.6767C15.0057 35.8213 15.4632 36.9177 16.2729 37.7271C17.0823 38.5368 18.1787 38.994 19.3233 39H31.2523C36.7912 39 41.4367 35.4149 41.4367 32.7229L41.4369 25.156ZM19.8072 26.0329C20.5497 25.9082 21.2383 25.566 21.7858 25.0493C22.3335 24.5328 22.7151 23.8652 22.8829 23.1315C23.3344 21.2617 24.4013 19.5984 25.9124 18.4082C27.4232 17.2183 29.2905 16.5709 31.2138 16.5704H31.246C33.5285 16.5914 35.7121 17.5048 37.3293 19.1156C38.9466 20.7262 39.8691 22.9059 39.8993 25.1882C39.9028 27.4817 38.9914 29.6817 37.3668 31.3006C35.7425 32.9197 33.5395 33.8238 31.246 33.8126H20.4811C19.4907 33.8183 18.5356 33.4469 17.8092 32.774C17.0827 32.1007 16.6398 31.1766 16.5703 30.1888C16.5703 27.7835 18.0114 26.3425 19.7945 26.0202L19.8072 26.0329ZM39.8991 32.7228C39.8991 34.2283 36.214 37.4652 31.246 37.4652H19.317H19.3173C18.5831 37.4585 17.8817 37.1618 17.3652 36.64C16.849 36.1183 16.5598 35.4137 16.5606 34.6797V33.7123C17.5845 34.781 19.0011 35.3844 20.4812 35.3824H31.2493H31.2491C34.7637 35.3884 38.033 33.5826 39.899 30.6045L39.8991 32.7228Z" fill="#22C55E"/>
<path fill-rule="evenodd" clip-rule="evenodd" d="M20.3518 32.6259H31.6651C33.4459 32.5462 35.1365 31.82 36.4204 30.5834C37.7044 29.3471 38.4936 27.685 38.6403 25.9084C38.7871 24.1318 38.2814 22.3628 37.2178 20.9324C36.1541 19.5019 34.6058 18.5082 32.8623 18.1372C31.1187 17.7662 29.2997 18.0435 27.7458 18.9169C26.192 19.7905 25.0099 21.2004 24.4207 22.8827C23.6463 25.1365 21.8325 26.8783 19.5492 27.561C18.3306 27.9124 17.7212 28.7118 17.7212 29.9952V29.9949C17.7194 30.6923 17.9959 31.3618 18.4889 31.855C18.9821 32.3482 19.6515 32.6244 20.3489 32.6226L20.3518 32.6259ZM19.9681 29.0796C22.7462 28.2589 24.9555 26.1447 25.8969 23.4052C26.2833 22.2776 27.0138 21.2997 27.9857 20.6095C28.9576 19.9195 30.1214 19.5518 31.3133 19.5588C33.3379 19.5741 35.2064 20.6492 36.237 22.3918C37.2676 24.1343 37.3099 26.2896 36.348 28.0712C35.3864 29.8527 33.5613 31.0001 31.539 31.0943H20.3518C20.0671 31.0901 19.7956 30.9731 19.5971 30.7686C19.3989 30.5644 19.2899 30.2894 19.2941 30.0047C19.2941 29.3567 19.4876 29.1955 19.9648 29.0665L19.9681 29.0796Z" fill="#22C55E"/>
<path fill-rule="evenodd" clip-rule="evenodd" d="M32.11 26.3553C32.7566 26.3563 33.3773 26.0998 33.835 25.6428C34.293 25.1859 34.5502 24.5657 34.5505 23.919C34.5507 23.2721 34.294 22.6519 33.8365 22.1944C33.3793 21.737 32.7589 21.4803 32.1123 21.4805C31.4653 21.4808 30.8451 21.7383 30.3882 22.196C29.9313 22.6537 29.675 23.2744 29.6758 23.921C29.6758 24.5667 29.9323 25.1859 30.3887 25.6423C30.8454 26.0988 31.4644 26.3553 32.11 26.3553H32.11ZM32.11 23.0216C32.5951 23.0339 32.9808 23.4326 32.9771 23.918C32.9781 24.148 32.8869 24.3687 32.7239 24.531C32.5609 24.6932 32.3399 24.7837 32.11 24.7819C31.626 24.7857 31.2276 24.4017 31.2135 23.918C31.217 23.4223 31.6143 23.0191 32.11 23.0086L32.11 23.0216Z" fill="#22C55E"/>
</svg>
