<svg width="57" height="76" viewBox="0 0 57 76" fill="none" xmlns="http://www.w3.org/2000/svg">
<path d="M28.25 0C43.844 0 56.5 12.6529 56.5 28.2432C56.5 56.4864 28.25 75.3154 28.25 75.3154C28.25 75.3154 0 56.4864 0 28.2432C4.28409e-05 12.6529 12.656 5.15878e-07 28.25 0ZM28.25 9.68359C18.1458 9.68359 9.95508 17.8728 9.95508 27.9746C9.95527 38.0762 18.1459 46.2646 28.25 46.2646C38.3541 46.2646 46.5447 38.0762 46.5449 27.9746C46.5449 17.8728 38.3542 9.6836 28.25 9.68359Z" fill="white"/>
<circle cx="28.5" cy="28.5" r="19.5" fill="white"/>
<path d="M28.25 2C42.74 2 54.5 13.76 54.5 28.25C54.5 54.5 28.25 72 28.25 72C28.25 72 2 54.5 2 28.25C2 13.76 13.76 2 28.25 2ZM28.25 11C18.8612 11 11.25 18.6112 11.25 28C11.25 37.3888 18.8612 45 28.25 45C37.6388 45 45.25 37.3888 45.25 28C45.25 18.6112 37.6388 11 28.25 11Z" fill="#22C55E"/>
<mask id="mask0_1_1066" style="mask-type:luminance" maskUnits="userSpaceOnUse" x="14" y="17" width="30" height="25">
<path d="M14 17H44V41.3985H14V17Z" fill="white"/>
</mask>
<g mask="url(#mask0_1_1066)">
<path d="M14.1879 37.6176C14.5694 38.6947 15.8279 39.4751 17.3259 39.5986C17.7392 40.7376 19.0034 41.398 20.1955 41.398C20.9417 41.398 21.5797 41.1454 21.9919 40.6858C22.0636 40.6061 22.1375 40.5103 22.2049 40.3969C23.0151 40.8205 24.0148 41.0654 25.0193 41.0654C26.2949 41.0654 27.3792 40.6632 28.0736 39.9313C28.4236 39.5617 28.6678 39.1147 28.801 38.6079C29.7359 38.9451 30.9195 39.0141 31.7164 38.7256C33.0856 38.2311 33.3643 37.3454 33.5867 36.4692C35.1908 36.6764 36.3097 35.2684 36.7059 32.5738C37.195 32.4931 37.6336 32.1851 37.9586 31.6852C38.3455 31.0901 38.5284 30.2934 38.4708 29.5989C39.2692 29.1769 39.5719 28.4287 39.4989 27.7702C39.4989 27.766 39.4975 27.7623 39.4968 27.7581C41.3041 27.3016 44.0333 25.9987 43.9755 24.0714C43.9667 23.7619 43.7609 23.493 43.4645 23.4026C42.6887 23.1651 42.0787 22.8072 41.5993 22.3072C41.5574 22.2636 41.5052 22.2391 41.4567 22.2081C41.8279 21.6186 42.116 21.0321 42.1302 20.6285C42.1581 19.8062 40.5915 17.2112 39.6294 17.0456C38.5136 16.8524 37.7377 17.5559 37.1663 18.553C37.1535 18.546 37.1423 18.5365 37.1286 18.5306C36.941 18.4444 36.68 18.2634 36.4029 18.0718C35.4778 17.4322 33.9298 16.3598 32.7661 17.727C32.096 18.515 32.3038 19.8067 32.5051 21.0559C32.5911 21.5837 32.6529 22.6587 32.6992 22.7696C32.6519 22.7647 32.6098 22.7547 32.5594 22.7547C31.9904 22.7547 31.5083 23.0821 31.1231 23.7292C30.5366 23.9224 29.8654 24.4262 29.7746 25.7062C28.8558 25.808 28.0682 26.1702 27.5639 26.7364C27.2894 27.0445 27.1016 27.4062 27.0046 27.8069C26.8021 27.7729 26.5952 27.7557 26.3895 27.7557C25.5729 27.7557 24.869 28.0246 24.406 28.5132C24.3876 28.533 24.3701 28.5521 24.3524 28.5724C23.9663 28.3112 23.5697 28.2667 23.3431 28.2667C22.6103 28.2667 21.8467 28.7029 21.3121 29.3423C20.8484 28.7572 20.3409 28.4617 19.7956 28.4617C18.8341 28.4617 18.0586 29.3838 17.6755 30.9245C17.4325 30.8637 17.1871 30.8324 16.9413 30.8324C15.6245 30.8324 14.4402 31.7601 14.1247 33.0364C13.9131 33.8895 14.1382 34.7053 14.7201 35.3135C13.9115 36.2812 14.0207 37.1427 14.1878 37.6176L14.1879 37.6176ZM39.3053 18.4621C39.3085 18.4621 39.3125 18.4621 39.3164 18.4624C39.7121 18.7625 40.5778 20.1592 40.6824 20.5931C40.5654 21.0769 39.3751 22.7538 38.8639 23.2144C38.5666 23.4812 38.5428 23.9379 38.8094 24.2339C38.952 24.3928 39.1491 24.4734 39.3465 24.4734C39.5189 24.4734 39.6914 24.4124 39.8293 24.2882C39.985 24.1488 40.2909 23.8047 40.6293 23.3743C41.1224 23.8697 41.7007 24.2593 42.3884 24.548C41.8508 25.3764 39.932 26.275 38.6919 26.4593C38.5787 26.3801 38.457 26.3071 38.3209 26.2489C38.4307 25.9497 38.447 25.649 38.3983 25.3808C38.2464 24.5571 37.4841 23.9366 36.6241 23.9366C36.5749 23.9366 36.5178 23.9403 36.4577 23.9452C36.6175 23.8832 36.759 23.7704 36.8424 23.6057C37.0179 23.2585 37.1714 22.7376 37.3665 22.0782C37.7169 20.8931 38.4347 18.4621 39.3053 18.4621ZM33.867 18.6628C34.1107 18.3747 34.4961 18.5099 35.5806 19.2595C35.9113 19.4881 36.5547 19.8521 36.5682 19.8577C36.3349 20.4776 35.7913 22.304 35.7081 22.554C35.4891 22.3156 35.0473 21.9311 34.4677 21.9311C34.3498 21.9311 34.2182 21.9496 34.0823 21.9927C34.0583 21.6347 33.9987 21.2393 33.9313 20.8261C33.8262 20.1674 33.6289 18.9429 33.867 18.6627L33.867 18.6628ZM15.5275 33.3824C15.6596 32.8471 16.2002 32.2774 16.9417 32.2774C17.24 32.2774 17.5485 32.3695 17.858 32.5505C18.067 32.6733 18.324 32.6824 18.5407 32.5759C18.7577 32.4697 18.907 32.2616 18.9394 32.0211C19.1277 30.5948 19.6357 29.9216 19.7965 29.9067C19.8004 29.9067 20.1679 29.9789 20.705 31.1303C20.8374 31.4122 21.14 31.5821 21.4465 31.5409C21.7566 31.5038 22.0083 31.2713 22.0684 30.9653C22.2003 30.3014 22.8915 29.7107 23.3445 29.7107C23.571 29.7107 23.7441 29.9246 23.8579 30.3481C23.9546 30.7044 24.3074 30.9329 24.6697 30.8733C25.0346 30.8146 25.2972 30.4909 25.2765 30.1209C25.2623 29.8503 25.3208 29.6495 25.4568 29.5073C25.6405 29.3125 25.9814 29.2009 26.3908 29.2009C26.7273 29.2009 27.074 29.2792 27.3427 29.4153C27.5792 29.5351 27.864 29.5164 28.0821 29.3633C28.3 29.2114 28.4174 28.9518 28.3862 28.688C28.3382 28.2709 28.4221 27.947 28.6442 27.6981C28.989 27.3111 29.6991 27.0913 30.4739 27.127C30.6868 27.1398 30.8831 27.0559 31.0285 26.9054C31.1727 26.7549 31.2445 26.5493 31.2265 26.342C31.1231 25.1587 31.509 25.1004 31.717 25.0692C31.9531 25.0338 32.157 24.8832 32.2602 24.6672C32.4424 24.2874 32.566 24.2056 32.5634 24.2002C32.6051 24.2023 33.1485 24.4149 33.3834 24.4149C33.5891 24.4149 34.0941 24.3454 34.3497 23.7065C34.4129 23.5487 34.4676 23.4578 34.5049 23.408C34.5648 23.4492 34.7107 23.61 34.7247 23.6258C34.8009 23.8714 34.6836 25.2933 34.6825 25.4183C34.6771 25.737 34.882 26.0215 35.186 26.118C35.4899 26.2154 35.8215 26.0996 36.0014 25.836C36.2002 25.5438 36.4211 25.3828 36.6245 25.3828C36.8067 25.3828 36.9544 25.5173 36.9768 25.6433C37.0122 25.8316 36.7408 26.07 36.3031 26.2371C35.9385 26.3757 35.7502 26.7791 35.8772 27.1477C36.0044 27.5159 36.4024 27.7317 36.7748 27.6019C37.87 27.2214 37.901 28.2017 37.472 28.4361C37.2821 28.5398 37.0819 28.623 36.9848 28.8166C36.8874 29.0098 36.882 29.2363 36.9699 29.4346C37.1062 29.7427 37.0395 30.4499 36.7483 30.8987C36.7089 30.9586 36.574 31.151 36.4458 31.151C36.4157 31.151 36.3775 31.1422 36.3356 31.1263C36.1251 31.0427 35.8863 31.0646 35.6936 31.1832C35.5004 31.3018 35.3741 31.5045 35.3538 31.7299C35.1965 33.3801 34.679 35.0449 33.8746 35.0449C33.7299 35.0449 33.5605 35.0015 33.372 34.9172C33.1818 34.833 32.9646 34.833 32.7749 34.9202C32.5864 35.0071 32.4431 35.1709 32.3842 35.3706C32.3187 35.5899 32.2672 35.798 32.218 35.9937C32.0146 36.8067 31.9377 37.112 31.2253 37.3686C31.044 37.4345 30.8049 37.469 30.533 37.469C29.8302 37.469 29.0272 37.2322 28.666 36.9188C28.4474 36.7273 28.1352 36.6867 27.8756 36.8142C27.6144 36.9419 27.4552 37.2122 27.4706 37.5014C27.5025 38.1098 27.3529 38.5929 27.0244 38.9385C26.6063 39.38 25.8945 39.6231 25.0195 39.6231C23.9501 39.6231 22.8314 39.241 22.2355 38.6726C22.0163 38.4629 21.6903 38.4132 21.4171 38.547C21.1454 38.6817 20.986 38.9713 21.0191 39.2726C21.0511 39.5725 20.9497 39.6855 20.9171 39.7221C20.7859 39.868 20.516 39.9542 20.1951 39.9542C19.5898 39.9542 18.674 39.6042 18.6315 38.8504C18.6108 38.4671 18.292 38.169 17.9113 38.169C17.9013 38.169 17.8917 38.169 17.8819 38.1697C16.693 38.2119 15.7334 37.6547 15.5498 37.1363C15.3727 36.6346 15.9299 36.0886 16.2778 35.808C16.4663 35.6551 16.5665 35.4179 16.5429 35.1756C16.5194 34.9341 16.3759 34.7205 16.1601 34.6065C15.4759 34.2453 15.4386 33.7413 15.5275 33.3824L15.5275 33.3824Z" fill="#22C55E"/>
</g>
<path d="M22.3432 36.4394C22.5347 36.4394 22.7253 36.3642 22.867 36.2146C23.1415 35.9252 23.1296 35.4682 22.8402 35.193C22.7691 35.1259 22.7326 35.0765 22.7141 35.0471C22.8922 34.8234 23.7522 34.5016 24.3225 34.5478C24.7121 34.582 25.071 34.2931 25.109 33.8957C25.146 33.4987 24.8543 33.1468 24.4569 33.1093C23.6064 33.0291 21.8597 33.4213 21.3773 34.4834C21.2517 34.7591 21.0466 35.4824 21.8464 36.2409C21.986 36.3744 22.164 36.4394 22.3432 36.4394Z" fill="#22C55E"/>
<path d="M27.8529 34.8658C28.0538 34.8658 28.2544 34.7826 28.3968 34.6188C28.6594 34.3189 28.6293 33.8624 28.3287 33.6C28.2092 33.4956 28.1705 33.4303 28.1652 33.4432C28.2346 33.2533 28.9621 32.893 29.4766 32.9683C29.8685 33.0237 30.2395 32.756 30.2989 32.3612C30.3583 31.967 30.0866 31.599 29.6919 31.5398C28.7032 31.3909 27.282 31.9119 26.8553 32.8321C26.7162 33.1313 26.4897 33.9108 27.3775 34.6863C27.515 34.8065 27.6844 34.8657 27.8528 34.8657L27.8529 34.8658Z" fill="#22C55E"/>
<path d="M31.9469 30.6148C32.1229 30.6148 32.2997 30.551 32.4386 30.4219C32.7306 30.1511 32.7483 29.6937 32.4766 29.4008C32.4531 29.3756 32.4333 29.3528 32.4181 29.3329C32.5913 29.2481 32.9415 29.1566 33.2918 29.1943C33.6811 29.2234 34.0418 28.944 34.0826 28.5469C34.1216 28.1496 33.8324 27.7961 33.4355 27.756C32.705 27.6854 31.4644 27.8828 31.0445 28.7294C30.8925 29.0339 30.7399 29.654 31.418 30.384C31.5597 30.5376 31.7529 30.6147 31.947 30.6147L31.9469 30.6148Z" fill="#22C55E"/>
</svg>
