<svg width="57" height="76" viewBox="0 0 57 76" fill="none" xmlns="http://www.w3.org/2000/svg">
<path d="M28.25 0C43.844 0 56.5 12.6529 56.5 28.2432C56.5 56.4864 28.25 75.3154 28.25 75.3154C28.25 75.3154 0 56.4864 0 28.2432C4.28409e-05 12.6529 12.656 5.15878e-07 28.25 0ZM28.25 9.68359C18.1458 9.68359 9.95508 17.8728 9.95508 27.9746C9.95527 38.0762 18.1459 46.2646 28.25 46.2646C38.3541 46.2646 46.5447 38.0762 46.5449 27.9746C46.5449 17.8728 38.3542 9.6836 28.25 9.68359Z" fill="white"/>
<circle cx="28.5" cy="28.5" r="19.5" fill="white"/>
<path d="M28.25 2C42.74 2 54.5 13.76 54.5 28.25C54.5 54.5 28.25 72 28.25 72C28.25 72 2 54.5 2 28.25C2 13.76 13.76 2 28.25 2ZM28.25 11C18.8612 11 11.25 18.6112 11.25 28C11.25 37.3888 18.8612 45 28.25 45C37.6388 45 45.25 37.3888 45.25 28C45.25 18.6112 37.6388 11 28.25 11Z" fill="#3B82F6"/>
<path d="M26.3697 16.4569C25.9433 16.4569 25.578 16.8224 25.578 17.2487V22.5477C25.578 23.2176 25.0297 23.7354 24.3903 23.7354H23.8725L23.8727 17.2488C23.8727 16.8223 23.5072 16.457 23.081 16.457C22.6545 16.457 22.2892 16.8226 22.2892 17.2488V23.7354H21.7714C21.1015 23.7354 20.5837 23.1871 20.5837 22.5477L20.5835 17.2487C20.5835 16.8222 20.218 16.4569 19.7917 16.4569C19.3653 16.4569 19 16.8224 19 17.2487V22.5477C19 24.0705 20.2486 25.3191 21.7714 25.3191H22.2892V28.669H21.2233C20.7969 28.669 20.4621 29.0041 20.4316 29.4303L20.1575 38.6884C20.127 39.4802 20.4316 40.2416 20.9797 40.8202C21.5279 41.3989 22.2892 41.7033 23.081 41.7033C23.8727 41.7033 24.6342 41.3987 25.1822 40.8202C25.7305 40.2415 26.0348 39.5107 26.0044 38.6884L25.7303 29.4303C25.7303 29.0039 25.3648 28.669 24.9386 28.669H23.8727V25.3189H24.3905C25.9132 25.3189 27.1619 24.0703 27.1619 22.5475L27.1617 17.2487C27.1617 16.7918 26.8266 16.4569 26.3697 16.4569ZM24.4207 38.7494C24.4207 39.1149 24.2989 39.4497 24.0552 39.7239C23.8115 39.998 23.446 40.1198 23.0808 40.1198C22.7152 40.1198 22.3804 39.9675 22.1063 39.7239C21.8626 39.4497 21.7103 39.1147 21.7408 38.7494L21.9844 30.2529H24.177L24.4207 38.7494Z" fill="#3B82F6"/>
<path d="M36.6936 29.6435V16.7917C36.6936 16.3653 36.3281 16 35.9019 16C32.2474 16 29.2629 18.9846 29.2629 22.639V30.2523C29.2629 30.6788 29.6285 31.0441 30.0547 31.0441H31.3642L31.151 38.6883C31.1205 39.48 31.4251 40.2415 31.9732 40.82C32.5215 41.3988 33.2827 41.7031 34.0745 41.7031C34.8662 41.7031 35.6277 41.3985 36.1758 40.82C36.724 40.2413 37.0284 39.5105 36.998 38.6883L36.6936 29.6435ZM30.8465 29.4607V22.6392C30.8465 20.1116 32.7041 18.0103 35.1102 17.6448V29.4611L30.8465 29.4607ZM35.0186 39.7241C34.775 39.9983 34.4094 40.1201 34.0442 40.1201C33.6786 40.1201 33.3438 39.9678 33.0697 39.7241C32.826 39.45 32.6737 39.115 32.7042 38.7497L32.9174 31.045H35.1405L35.3537 38.7497C35.4146 39.115 35.2623 39.45 35.0186 39.7241Z" fill="#3B82F6"/>
</svg>
